SplineFontDB: 3.0
FontName: tsi4n-smcp
FullName: tsi4n-smcp
FamilyName: tsi4n-smcp
Weight: regular
Copyright: http://dejavu-fonts.org
Version: 10.18
ItalicAngle: -11
UnderlinePosition: -85
UnderlineWidth: 90
Ascent: 1638
Descent: 410
sfntRevision: 0x000a2e14
LayerCount: 2
Layer: 0 1 "Back"  1
Layer: 1 1 "Fore"  0
NeedsXUIDChange: 1
XUID: [1021 545 1002448030 10171440]
FSType: 0
OS2Version: 3
OS2_WeightWidthSlopeOnly: 0
OS2_UseTypoMetrics: 1
CreationTime: 1337492563
ModificationTime: 1339156267
PfmFamily: 17
TTFWeight: 400
TTFWidth: 5
LineGap: 0
VLineGap: 0
Panose: 2 6 6 3 5 3 5 11 2 4
OS2TypoAscent: 263
OS2TypoAOffset: 1
OS2TypoDescent: -73
OS2TypoDOffset: 1
OS2TypoLinegap: 0
OS2WinAscent: 336
OS2WinAOffset: 1
OS2WinDescent: 0
OS2WinDOffset: 1
HheadAscent: 336
HheadAOffset: 1
HheadDescent: 0
HheadDOffset: 1
OS2SubXSize: 1331
OS2SubYSize: 1433
OS2SubXOff: 54
OS2SubYOff: 286
OS2SupXSize: 1331
OS2SupYSize: 1433
OS2SupXOff: -187
OS2SupYOff: 983
OS2StrikeYSize: 102
OS2StrikeYPos: 530
OS2Vendor: 'PfEd'
OS2CodePages: 00000000.00000000
OS2UnicodeRanges: 00000000.00000000.00000000.00000000
Lookup: 1 0 0 "'smcp' Lowercase to Small Capitals in Latin lookup 0"  {"'smcp' Lowercase to Small Capitals in Latin lookup 0 subtable"  } ['smcp' ('DFLT' <'dflt' > 'latn' <'dflt' > ) ]
Lookup: 1 0 0 "'c2sc' Capitals to Small Capitals in Latin lookup 0"  {"'c2sc' Capitals to Small Capitals in Latin lookup 0 subtable"  } ['c2sc' ('DFLT' <'dflt' > 'latn' <'dflt' > ) ]
Lookup: 1 0 0 "DejaVuSerif-Italic-'salt' Stylistic Alternatives lookup 6"  {"DejaVuSerif-Italic-'salt' Stylistic Alternatives lookup 6 subtable"  } ['salt' ('DFLT' <'dflt' > 'cyrl' <'MKD ' 'SRB ' 'dflt' > 'grek' <'dflt' > 'latn' <'AZE ' 'CRT ' 'GAG ' 'ISM ' 'KAZ ' 'KRK ' 'KSM ' 'LSM ' 'MOL ' 'NSM ' 'ROM ' 'SKS ' 'SSM ' 'TAT ' 'TRK ' 'dflt' > ) ]

StartChar: exclam
Encoding: 257 33 1
Width: 570
VWidth: 0
Flags: W
HStem: -23 267<128.344 259.141> 1183 20G<303.42 489>
VStem: 84 220<24.4468 199.426> 182 110<382 492>
LayerCount: 2
Fore
SplineSet
127 198 m 128,-1,1
 170 244 170 244 214.5 244 c 128,-1,2
 259 244 259 244 281.5 211 c 128,-1,3
 304 178 304 178 304 153 c 0,4,5
 304 69 304 69 260.5 23 c 128,-1,6
 217 -23 217 -23 173 -23 c 128,-1,7
 129 -23 129 -23 106.5 10 c 128,-1,8
 84 43 84 43 84 97.5 c 128,-1,0
 84 152 84 152 127 198 c 128,-1,1
306 1203 m 1,9,-1
 489 1203 l 1,10,-1
 327 575 l 1,11,-1
 292 382 l 1,12,-1
 182 382 l 1,13,-1
 225 575 l 1,14,-1
 306 1203 l 1,9,-1
EndSplineSet
Validated: 3073
EndChar

StartChar: quotedbl
Encoding: 258 34 2
Width: 737
VWidth: 0
Flags: W
HStem: 648 555<168 310 468 610>
VStem: 168 142<648 1203> 468 142<648 1203>
LayerCount: 2
Fore
SplineSet
310 1203 m 1,0,-1
 310 648 l 1,1,-1
 168 648 l 1,2,-1
 168 1203 l 1,3,-1
 310 1203 l 1,0,-1
610 1203 m 1,4,-1
 610 648 l 1,5,-1
 468 648 l 1,6,-1
 468 1203 l 1,7,-1
 610 1203 l 1,4,-1
EndSplineSet
Validated: 3073
EndChar

StartChar: numbersign
Encoding: 259 35 3
Width: 1357
VWidth: 0
Flags: W
HStem: 0 21G<243 400.882 641 800.621> 306 153<96 334 517 735 912 1174> 697 154<177 441 625 839 1017 1256>
VStem: 243 152<0 152> 564 152<1033 1185> 641 154<0 154> 957 154<1031 1185>
DStem2: 243 0 395 0 0.261966 0.965077<39.8188 319.152 514.749 724.528 921.352 1227.71> 641 0 795 0 0.257663 0.966235<39.68 319.888 513.328 724.483 919.147 1226.41>
LayerCount: 2
Fore
SplineSet
839 697 m 1,0,-1
 590 697 l 1,1,-1
 517 459 l 1,2,-1
 770 459 l 1,3,-1
 839 697 l 1,0,-1
716 1185 m 1,4,-1
 625 851 l 1,5,-1
 871 851 l 1,6,-1
 957 1185 l 1,7,-1
 1111 1185 l 1,8,-1
 1017 851 l 1,9,-1
 1256 851 l 1,10,-1
 1256 697 l 1,11,-1
 982 697 l 1,12,-1
 912 459 l 1,13,-1
 1174 459 l 1,14,-1
 1174 306 l 1,15,-1
 881 306 l 1,16,-1
 795 0 l 1,17,-1
 641 0 l 1,18,-1
 735 306 l 1,19,-1
 485 306 l 1,20,-1
 395 0 l 1,21,-1
 243 0 l 1,22,-1
 334 306 l 1,23,-1
 96 306 l 1,24,-1
 96 459 l 1,25,-1
 369 459 l 1,26,-1
 441 697 l 1,27,-1
 177 697 l 1,28,-1
 177 851 l 1,29,-1
 474 851 l 1,30,-1
 564 1185 l 1,31,-1
 716 1185 l 1,4,-1
EndSplineSet
Validated: 3073
EndChar

StartChar: dollar
Encoding: 260 36 4
Width: 1021
VWidth: 0
Flags: W
HStem: -36 100<232.607 365 474 606.568> 946 102<433.206 555 665 768.656>
VStem: 86 100<110.455 290> 201 167<595.5 845.791> 320 89<-268 -179> 617 89<1173 1262> 674 177<180.022 372.462> 810 110<758 897.012>
DStem2: 320 -268 409 -268 0.190809 0.981627<16.982 236.324 355.285 717.91 900.387 1236.54 1357.65 1558.56>
LayerCount: 2
Fore
SplineSet
474 64 m 1,0,1
 642 64 642 64 669 233 c 1,2,3
 674 254 674 254 674 285 c 128,-1,4
 674 316 674 316 645 356 c 128,-1,5
 616 396 616 396 543 420 c 1,6,-1
 474 64 l 1,0,1
555 946 m 1,7,8
 480 946 480 946 424 895 c 128,-1,9
 368 844 368 844 368 752 c 128,-1,10
 368 660 368 660 491 616 c 1,11,-1
 555 946 l 1,7,8
576 590 m 1,12,13
 851 497 851 497 851 367 c 0,14,15
 851 186 851 186 714 58 c 0,16,17
 613 -36 613 -36 454 -36 c 1,18,-1
 409 -268 l 1,19,-1
 320 -268 l 1,20,-1
 365 -36 l 1,21,22
 231 -36 231 -36 86 67 c 1,23,-1
 86 290 l 1,24,-1
 192 290 l 1,25,26
 186 257 186 257 186 210 c 128,-1,27
 186 163 186 163 228 113.5 c 128,-1,28
 270 64 270 64 384 64 c 1,29,-1
 458 446 l 1,30,31
 201 532 201 532 201 659 c 0,32,33
 201 835 201 835 332 958 c 0,34,35
 428 1048 428 1048 575 1048 c 1,36,-1
 617 1262 l 1,37,-1
 706 1262 l 1,38,-1
 665 1048 l 1,39,40
 801 1048 801 1048 920 969 c 1,41,-1
 920 758 l 1,42,-1
 810 758 l 1,43,44
 810 788 l 2,45,46
 810 851 810 851 771.5 898.5 c 128,-1,47
 733 946 733 946 645 946 c 1,48,-1
 576 590 l 1,12,13
EndSplineSet
Validated: 3073
EndChar

StartChar: percent
Encoding: 261 37 5
Width: 1478
VWidth: 0
Flags: W
HStem: -23 92<944.17 1127.88> 561 91<266.708 451.9 1038.88 1196.67> 1132 93<344.512 530.761>
VStem: 115 126<674.723 998.506> 196 136<-23 113> 556 122<786.405 1088.27> 797 121<112.669 412.722> 1143 136<1089 1225> 1233 129<202.164 525.264>
DStem2: 196 -23 332 -23 0.604484 0.796617<82.2099 1566.62>
LayerCount: 2
Fore
SplineSet
542 1068 m 0,0,1
 515 1132 515 1132 446 1132 c 0,2,3
 378 1132 378 1132 327 1069 c 128,-1,4
 276 1006 276 1006 253 892 c 1,5,6
 241 839 241 839 241 794 c 0,7,8
 241 750 241 750 256 716 c 0,9,10
 284 652 284 652 352 652 c 0,11,12
 419 652 419 652 470 715.5 c 128,-1,13
 521 779 521 779 539 862 c 0,14,15
 556 944 556 944 556 989 c 128,-1,16
 556 1034 556 1034 542 1068 c 0,0,1
1218 484 m 0,17,18
 1190 548 1190 548 1123 548 c 128,-1,19
 1056 548 1056 548 1004.5 484 c 128,-1,20
 953 420 953 420 930 307 c 1,21,22
 918 254 918 254 918 210 c 0,23,24
 918 165 918 165 933 132 c 0,25,26
 962 69 962 69 1028 69 c 0,27,28
 1095 69 1095 69 1146.5 132.5 c 128,-1,29
 1198 196 1198 196 1220 307 c 1,30,31
 1233 361 1233 361 1233 406 c 128,-1,32
 1233 451 1233 451 1218 484 c 0,17,18
1140 638 m 2,33,-1
 1143 638 l 2,34,35
 1265 638 1265 638 1323 548 c 0,36,37
 1362 487 1362 487 1362 425 c 0,38,39
 1362 360 1362 360 1351 307 c 0,40,41
 1319 155 1319 155 1229 66 c 128,-1,42
 1139 -23 1139 -23 1016 -23 c 128,-1,43
 893 -23 893 -23 834 66 c 0,44,45
 797 121 797 121 797 185.5 c 128,-1,46
 797 250 797 250 810 307 c 1,47,48
 839 459 839 459 928 548.5 c 128,-1,49
 1017 638 1017 638 1140 638 c 2,33,-1
1143 1225 m 1,50,-1
 1279 1225 l 1,51,-1
 332 -23 l 1,52,-1
 196 -23 l 1,53,-1
 1143 1225 l 1,50,-1
456 1225 m 0,54,55
 579 1225 579 1225 640 1136 c 0,56,57
 678 1081 678 1081 678 1015 c 0,58,59
 678 948 678 948 664 893 c 1,60,61
 635 739 635 739 546 650 c 128,-1,62
 457 561 457 561 334 561 c 128,-1,63
 211 561 211 561 152 650 c 0,64,65
 115 706 115 706 115 770 c 128,-1,66
 115 834 115 834 129 893 c 1,67,68
 157 1045 157 1045 245.5 1135 c 128,-1,69
 334 1225 334 1225 456 1225 c 0,54,55
EndSplineSet
Validated: 3073
EndChar

StartChar: ampersand
Encoding: 262 38 6
Width: 1451
VWidth: 0
Flags: W
HStem: -29 121<382.863 670.643> 0 106<1113 1266> 585 108<1207.66 1347> 953 204<913.281 991> 1118 107<634.902 884.868>
VStem: 98 188<189.075 468.871> 387 179<819.323 1053.36> 911 80<953 983.531> 1153 209<609.851 693>
DStem2: 975 306 468 689 0.57082 -0.821075<-603.878 -5.91399 71.4497 235.266>
LayerCount: 2
Fore
SplineSet
468 689 m 1,0,1
 286 537 286 537 286 337 c 0,2,3
 286 247 286 247 336 181 c 0,4,5
 404 92 404 92 543.5 92 c 128,-1,6
 683 92 683 92 807 200 c 1,7,-1
 468 689 l 1,0,1
1222 585 m 1,8,9
 1161 386 1161 386 1017 244 c 1,10,-1
 1113 106 l 1,11,-1
 1281 106 l 1,12,-1
 1266 0 l 1,13,-1
 947 0 l 1,14,-1
 853 135 l 1,15,16
 669 -29 669 -29 466.5 -29 c 128,-1,17
 264 -29 264 -29 169 79 c 0,18,19
 98 159 98 159 98 281 c 0,20,21
 98 557 98 557 438 752 c 1,22,23
 387 823 387 823 387 897 c 0,24,25
 387 922 387 922 392 949 c 0,26,27
 415 1076 415 1076 515.5 1150.5 c 128,-1,28
 616 1225 616 1225 765 1225 c 0,29,30
 863 1225 863 1225 1027 1157 c 1,31,-1
 991 953 l 1,32,-1
 911 953 l 1,33,34
 913 969 913 969 913 984 c 0,35,36
 913 1118 913 1118 762 1118 c 0,37,38
 690 1118 690 1118 628 1069.5 c 128,-1,39
 566 1021 566 1021 566 934 c 0,40,41
 566 904 566 904 581.5 867 c 128,-1,42
 597 830 597 830 671 743 c 1,43,-1
 975 306 l 1,44,45
 1096 435 1096 435 1138 606 c 1,46,-1
 1153 693 l 1,47,-1
 1362 693 l 1,48,-1
 1347 585 l 1,49,-1
 1222 585 l 1,8,9
EndSplineSet
Validated: 3073
EndChar

StartChar: quotesingle
Encoding: 263 39 7
Width: 437
VWidth: 0
Flags: W
HStem: 648 555<168 310>
VStem: 168 142<648 1203>
LayerCount: 2
Fore
SplineSet
310 1203 m 1,0,-1
 310 648 l 1,1,-1
 168 648 l 1,2,-1
 168 1203 l 1,3,-1
 310 1203 l 1,0,-1
EndSplineSet
Validated: 3073
EndChar

StartChar: parenleft
Encoding: 264 40 8
Width: 696
VWidth: 0
Flags: W
VStem: 111 134<-14.3372 502.361>
LayerCount: 2
Fore
SplineSet
245 170 m 0,0,1
 245 -61 245 -61 377 -178 c 1,2,-1
 363 -257 l 1,3,4
 205 -168 205 -168 142 22 c 0,5,6
 111 117 111 117 111 235.5 c 128,-1,7
 111 354 111 354 143 498 c 1,8,9
 242 1076 242 1076 622 1254 c 1,10,-1
 609 1175 l 1,11,12
 485 1090 485 1090 410.5 934.5 c 128,-1,13
 336 779 336 779 288 498 c 1,14,15
 245 304 245 304 245 170 c 0,0,1
EndSplineSet
Validated: 3073
EndChar

StartChar: parenright
Encoding: 265 41 9
Width: 702
VWidth: 0
Flags: W
VStem: 447 135<489.325 1008.7>
LayerCount: 2
Fore
SplineSet
447 826 m 0,0,1
 447 1057 447 1057 316 1175 c 1,2,-1
 329 1254 l 1,3,4
 487 1167 487 1167 550 976 c 0,5,6
 582 882 582 882 582 765 c 0,7,8
 582 643 582 643 550 498 c 1,9,10
 451 -80 451 -80 70 -257 c 1,11,-1
 84 -178 l 1,12,13
 208 -93 208 -93 282.5 62.5 c 128,-1,14
 357 218 357 218 405 498 c 1,15,16
 447 692 447 692 447 826 c 0,0,1
EndSplineSet
Validated: 3073
EndChar

StartChar: asterisk
Encoding: 266 42 10
Width: 929
VWidth: 0
Flags: W
HStem: 1205 20G<415 536>
VStem: 415 121<470 777 914 1225>
LayerCount: 2
Fore
SplineSet
829 993 m 1,0,-1
 550 846 l 1,1,-1
 829 697 l 1,2,-1
 775 602 l 1,3,-1
 524 777 l 1,4,-1
 524 470 l 1,5,-1
 427 470 l 1,6,-1
 427 777 l 1,7,-1
 176 602 l 1,8,-1
 122 697 l 1,9,-1
 401 845 l 1,10,-1
 122 993 l 1,11,-1
 176 1089 l 1,12,-1
 415 914 l 1,13,-1
 415 1225 l 1,14,-1
 536 1225 l 1,15,-1
 536 914 l 1,16,-1
 775 1089 l 1,17,-1
 829 993 l 1,0,-1
EndSplineSet
Validated: 3073
EndChar

StartChar: plus
Encoding: 267 43 11
Width: 1157
VWidth: 0
Flags: W
HStem: 0 21G<508 651> 422 162<109 508 651 1050>
VStem: 508 143<0 422 584 1036>
LayerCount: 2
Fore
SplineSet
651 1036 m 1,0,-1
 651 584 l 1,1,-1
 1050 584 l 1,2,-1
 1050 422 l 1,3,-1
 651 422 l 1,4,-1
 651 0 l 1,5,-1
 508 0 l 1,6,-1
 508 422 l 1,7,-1
 109 422 l 1,8,-1
 109 584 l 1,9,-1
 508 584 l 1,10,-1
 508 1036 l 1,11,-1
 651 1036 l 1,0,-1
EndSplineSet
Validated: 3073
EndChar

StartChar: comma
Encoding: 268 44 12
Width: 627
VWidth: 0
Flags: W
HStem: -275 507
VStem: 298 182<73.875 232>
LayerCount: 2
Fore
SplineSet
114 -195 m 1,0,1
 261 -63 261 -63 298 195 c 1,2,-1
 304 232 l 1,3,-1
 480 232 l 1,4,5
 447 61 447 61 369.5 -62 c 128,-1,6
 292 -185 292 -185 160 -275 c 1,7,-1
 114 -195 l 1,0,1
EndSplineSet
Validated: 3073
EndChar

StartChar: hyphen
Encoding: 269 45 13
Width: 666
VWidth: 0
Flags: W
HStem: 363 157<161 505>
VStem: 140 386
LayerCount: 2
Fore
SplineSet
161 520 m 1,0,-1
 526 520 l 1,1,-1
 505 363 l 1,2,-1
 140 363 l 1,3,-1
 161 520 l 1,0,-1
EndSplineSet
Validated: 3073
EndChar

StartChar: period
Encoding: 270 46 14
Width: 484
VWidth: 0
Flags: W
HStem: -48 266<171.011 286.989>
VStem: 129 200<-5.8125 176.691>
LayerCount: 2
Fore
SplineSet
168.5 171 m 128,-1,1
 208 218 208 218 247.5 218 c 128,-1,2
 287 218 287 218 308 186 c 128,-1,3
 329 154 329 154 329 129 c 0,4,5
 329 47 329 47 290 0 c 0,6,7
 250 -48 250 -48 210.5 -48 c 131,-1,8
 171 -48 171 -48 150 -18 c 1,9,10
 129 15 129 15 129 69.5 c 128,-1,0
 129 124 129 124 168.5 171 c 128,-1,1
EndSplineSet
Validated: 3073
EndChar

StartChar: slash
Encoding: 271 47 15
Width: 939
VWidth: 0
Flags: W
HStem: 1183 20G<709.485 864>
DStem2: 72 -157 216 -157 0.43014 0.902762<61.9401 1506.06>
LayerCount: 2
Fore
SplineSet
719 1203 m 1,0,-1
 864 1203 l 1,1,-1
 216 -157 l 1,2,-1
 72 -157 l 1,3,-1
 719 1203 l 1,0,-1
EndSplineSet
Validated: 3073
EndChar

StartChar: zero
Encoding: 272 48 16
Width: 1185
VWidth: 0
Flags: W
HStem: -23 106<380.135 645.985> 1119 106<546.856 811.859>
VStem: 116 184<167.389 642.64> 890 184<561.27 1037.43>
LayerCount: 2
Fore
SplineSet
335 598 m 1,0,1
 300 446 300 446 300 359.5 c 128,-1,2
 300 273 300 273 315 228 c 0,3,4
 365 83 365 83 505.5 83 c 128,-1,5
 646 83 646 83 726.5 217 c 128,-1,6
 807 351 807 351 855 604 c 1,7,8
 890 756 890 756 890 844 c 0,9,10
 890 1119 890 1119 677 1119 c 3,11,12
 552 1119 552 1119 463 985 c 0,13,14
 387 870 387 870 335 598 c 1,0,1
859 144 m 1,15,16
 722 -23 722 -23 489 -23 c 128,-1,17
 256 -23 256 -23 165 144 c 0,18,19
 116 234 116 234 116 342 c 0,20,21
 116 783 116 783 333 1059 c 1,22,23
 471 1225 471 1225 705 1225 c 128,-1,24
 939 1225 939 1225 1026 1058 c 0,25,26
 1074 968 1074 968 1074 860 c 0,27,28
 1074 420 1074 420 859 144 c 1,15,16
EndSplineSet
Validated: 19457
EndChar

StartChar: one
Encoding: 273 49 17
Width: 1022
VWidth: 0
Flags: W
HStem: 0 106<93 443 601 912> 1205 20G<649.839 819>
DStem2: 291 1070 252 910 0.935955 0.352119<0 308.615> 422.396 0 580.396 0 0.190809 0.981627<138.132 1075.45>
LayerCount: 2
Fore
SplineSet
78 0 m 1,0,-1
 93 106 l 1,1,-1
 443 106 l 1,2,-1
 626 1056 l 1,3,-1
 252 910 l 1,4,-1
 291 1070 l 1,5,-1
 703 1225 l 1,6,-1
 819 1225 l 1,7,-1
 601 106 l 1,8,-1
 929 106 l 1,9,-1
 912 0 l 1,10,-1
 78 0 l 1,0,-1
EndSplineSet
Validated: 3073
EndChar

StartChar: two
Encoding: 274 50 18
Width: 1011
VWidth: 0
Flags: W
HStem: 0 120<262 673> 1119 106<443.325 684.941>
VStem: 199 156<914 989.356> 712 156<126 282> 735 169<789.023 1068.73>
LayerCount: 2
Fore
SplineSet
355 914 m 1,0,-1
 199 914 l 1,1,-1
 238 1119 l 1,2,3
 415 1225 415 1225 594 1225 c 2,4,-1
 597 1225 l 2,5,6
 777 1225 777 1225 858 1102 c 0,7,8
 904 1032 904 1032 904 948 c 0,9,10
 904 632 904 632 262 120 c 1,11,-1
 673 120 l 1,12,-1
 712 282 l 1,13,-1
 868 282 l 1,14,-1
 798 0 l 1,15,-1
 19 0 l 1,16,-1
 43 131 l 1,17,18
 735 666 735 666 735 944 c 0,19,20
 735 1009 735 1009 694.5 1064 c 128,-1,21
 654 1119 654 1119 555 1119 c 2,22,-1
 552 1119 l 2,23,24
 413 1119 413 1119 355 914 c 1,0,-1
EndSplineSet
EndChar

StartChar: three
Encoding: 275 51 19
Width: 1009
VWidth: 0
Flags: W
HStem: -23 99<272.581 594.844> 600 102<468 655.566> 1126 99<478.826 764.935>
VStem: 122 100<251.688 298> 285 100<934 996.642> 738 154<230.063 541.187> 800 153<840.836 1089.92>
LayerCount: 2
Fore
SplineSet
632 1126 m 0,0,1
 438 1126 438 1126 385 934 c 1,2,-1
 285 934 l 1,3,-1
 331 1135 l 1,4,5
 516 1225 516 1225 664 1225 c 0,6,7
 810 1225 810 1225 896 1149 c 0,8,9
 953 1098 953 1098 953 1021 c 0,10,11
 953 982 953 982 939 937 c 1,12,13
 920 828 920 828 847.5 755.5 c 128,-1,14
 775 683 775 683 659 657 c 1,15,16
 786 636 786 636 851 551 c 0,17,18
 892 498 892 498 892 439.5 c 128,-1,19
 892 381 892 381 877 330 c 1,20,21
 847 159 847 159 725 68 c 128,-1,22
 603 -23 603 -23 405 -23 c 0,23,24
 231 -23 231 -23 82 78 c 1,25,-1
 122 298 l 1,26,-1
 222 298 l 1,27,28
 218 273 218 273 218 251 c 0,29,30
 218 175 218 175 267.5 125.5 c 128,-1,31
 317 76 317 76 432.5 76 c 128,-1,32
 548 76 548 76 626.5 143.5 c 128,-1,33
 705 211 705 211 727 328 c 1,34,35
 738 375 738 375 738 430.5 c 128,-1,36
 738 486 738 486 702 531 c 0,37,38
 647 600 647 600 521 600 c 2,39,-1
 453 600 l 1,40,-1
 468 702 l 1,41,-1
 503 702 l 2,42,43
 753 702 753 702 793 922 c 0,44,45
 800 955 800 955 800 997 c 0,46,47
 800 1040 800 1040 772 1074 c 0,48,49
 728 1126 728 1126 632 1126 c 0,0,1
EndSplineSet
EndChar

StartChar: four
Encoding: 276 52 20
Width: 1130
VWidth: 0
Flags: W
HStem: 0 106<416 617 767 924> 327 106<230 660 830 1012> 1205 20G<796.797 984>
DStem2: 96 435 230 433 0.673092 0.739559<88.7152 929.558> 596.396 0 746.396 0 0.190809 0.981627<136.605 333.128 469.618 1072.12>
LayerCount: 2
Fore
SplineSet
673 433 m 1,0,-1
 798 1053 l 1,1,-1
 230 433 l 1,2,-1
 673 433 l 1,0,-1
924 0 m 1,3,-1
 401 0 l 1,4,-1
 416 106 l 1,5,-1
 617 106 l 1,6,-1
 660 327 l 1,7,-1
 96 327 l 1,8,-1
 96 435 l 1,9,-1
 815 1225 l 1,10,-1
 984 1225 l 1,11,-1
 830 433 l 1,12,-1
 1027 433 l 1,13,-1
 1012 327 l 1,14,-1
 809 327 l 1,15,-1
 767 106 l 1,16,-1
 941 106 l 1,17,-1
 924 0 l 1,3,-1
EndSplineSet
Validated: 3073
EndChar

StartChar: five
Encoding: 277 53 21
Width: 1021
VWidth: 0
Flags: W
HStem: -23 99<317.908 621.101> 682 100<439.836 719.796> 1039 164<465 952>
VStem: 172 101<246.72 296> 781 149<284.072 622.875>
DStem2: 164.011 -23 259.519 -23 0.190809 0.981627<764.943 1099.92>
LayerCount: 2
Fore
SplineSet
751 604 m 4,0,1
 701 682 701 682 576.5 682 c 132,-1,2
 452 682 452 682 357 584 c 5,3,-1
 282 584 l 5,4,-1
 402 1203 l 5,5,-1
 975 1203 l 5,6,-1
 952 1039 l 5,7,-1
 465 1039 l 5,8,-1
 402 710 l 5,9,10
 486 782 486 782 609 782 c 4,11,12
 782 782 782 782 873 674 c 4,13,14
 930 606 930 606 930 506 c 4,15,16
 930 448 930 448 911 380 c 5,17,18
 877 190 877 190 752.5 83.5 c 132,-1,19
 628 -23 628 -23 438 -23 c 4,20,21
 284 -23 284 -23 132 78 c 5,22,-1
 172 296 l 5,23,-1
 273 296 l 5,24,25
 269 269 269 269 269 246 c 4,26,27
 269 175 269 175 313.5 125.5 c 132,-1,28
 358 76 358 76 471 76 c 132,-1,29
 584 76 584 76 662 154.5 c 132,-1,30
 740 233 740 233 768 380 c 5,31,32
 781 438 781 438 781 497.5 c 132,-1,33
 781 557 781 557 751 604 c 4,0,1
EndSplineSet
EndChar

StartChar: six
Encoding: 278 54 22
Width: 1097
VWidth: 0
Flags: W
HStem: -35 100<344.753 599.575> 692 100<454.004 706.159> 1125 100<564.254 833.438>
VStem: 119 174<119.679 498.9> 755 178<271.636 642> 866 95<918 991.472>
LayerCount: 2
Fore
SplineSet
144 580 m 0,0,1
 202 882 202 882 362.5 1053.5 c 128,-1,2
 523 1225 523 1225 752 1225 c 0,3,4
 881 1225 881 1225 1009 1164 c 1,5,-1
 961 918 l 1,6,-1
 866 918 l 1,7,8
 872 950 872 950 872 993 c 128,-1,9
 872 1036 872 1036 835.5 1080.5 c 128,-1,10
 799 1125 799 1125 717 1125 c 0,11,12
 580 1125 580 1125 480 1006 c 128,-1,13
 380 887 380 887 333 653 c 1,14,15
 463 792 463 792 632 792 c 0,16,17
 800 792 800 792 879 682 c 0,18,19
 933 607 933 607 933 495 c 0,20,21
 933 442 933 442 921 381 c 0,22,23
 884 191 884 191 752 78 c 128,-1,24
 620 -35 620 -35 429 -35 c 128,-1,25
 238 -35 238 -35 162 121 c 0,26,27
 119 209 119 209 119 328.5 c 128,-1,28
 119 448 119 448 144 580 c 0,0,1
755 492 m 0,29,30
 755 692 755 692 583 692 c 0,31,32
 477 692 477 692 406 614 c 128,-1,33
 335 536 335 536 305 384 c 0,34,35
 293 320 293 320 293 259 c 128,-1,36
 293 198 293 198 316 149 c 0,37,38
 356 65 356 65 462 65 c 256,39,40
 567 65 567 65 640 146.5 c 128,-1,41
 713 228 713 228 743 379 c 256,42,43
 755 441 755 441 755 492 c 0,29,30
EndSplineSet
Validated: 3073
EndChar

StartChar: seven
Encoding: 279 55 23
Width: 1005
VWidth: 0
Flags: W
HStem: 0 21G<200 344.735> 1039 164<299 837>
VStem: 200 133<0 133>
DStem2: 200 0 333 0 0.506061 0.862498<67.3061 1218.5>
LayerCount: 2
Fore
SplineSet
979 1101 m 5,0,-1
 333 0 l 5,1,-1
 200 0 l 5,2,-1
 837 1039 l 5,3,-1
 299 1039 l 5,4,-1
 280 942 l 5,5,-1
 175 942 l 5,6,-1
 226 1203 l 5,7,-1
 994 1203 l 5,8,-1
 979 1101 l 5,0,-1
EndSplineSet
EndChar

StartChar: eight
Encoding: 280 56 24
Width: 1022
VWidth: 0
Flags: W
HStem: -23 99<299.715 573.817> 590 98<422.938 637.054> 1126 99<483.967 732.767>
VStem: 93 157<125.465 425.823> 234 147<725.187 1012.49> 702 154<225.219 539.385> 771 151<818.298 1088.94>
LayerCount: 2
Fore
SplineSet
691 333 m 1,0,1
 702 380 702 380 702 431 c 0,2,3
 702 481 702 481 672 522 c 0,4,5
 622 590 622 590 522 590 c 0,6,7
 420 590 420 590 351 522.5 c 128,-1,8
 282 455 282 455 260 333 c 1,9,10
 250 287 250 287 250 236 c 128,-1,11
 250 185 250 185 280 143 c 0,12,13
 328 76 328 76 430 76 c 128,-1,14
 532 76 532 76 600.5 143 c 128,-1,15
 669 210 669 210 691 333 c 1,0,1
762 908 m 1,16,17
 771 946 771 946 771 989 c 128,-1,18
 771 1032 771 1032 745 1068 c 0,19,20
 704 1126 704 1126 616 1126 c 128,-1,21
 528 1126 528 1126 468.5 1068.5 c 128,-1,22
 409 1011 409 1011 389 908 c 0,23,24
 381 871 381 871 381 827 c 0,25,26
 381 782 381 782 407 746 c 0,27,28
 448 688 448 688 536 688 c 128,-1,29
 624 688 624 688 683.5 746 c 128,-1,30
 743 804 743 804 762 908 c 1,16,17
639 640 m 1,31,32
 756 621 756 621 817 539 c 0,33,34
 856 487 856 487 856 429 c 0,35,36
 856 376 856 376 841 329 c 1,37,38
 813 160 813 160 701.5 68.5 c 128,-1,39
 590 -23 590 -23 414.5 -23 c 128,-1,40
 239 -23 239 -23 150 68 c 0,41,42
 93 126 93 126 93 219 c 0,43,44
 93 269 93 269 110 329 c 1,45,46
 132 457 132 457 213.5 539 c 128,-1,47
 295 621 295 621 421 640 c 1,48,49
 317 662 317 662 266 732 c 0,50,51
 234 776 234 776 234 824 c 128,-1,52
 234 872 234 872 245 913 c 1,53,54
 270 1058 270 1058 372.5 1141.5 c 128,-1,55
 475 1225 475 1225 630 1225 c 0,56,57
 784 1225 784 1225 867 1142 c 0,58,59
 922 1087 922 1087 922 1005 c 0,60,61
 922 963 922 963 907 913 c 1,62,63
 888 803 888 803 818.5 732.5 c 128,-1,64
 749 662 749 662 639 640 c 1,31,32
EndSplineSet
Validated: 3073
EndChar

StartChar: nine
Encoding: 281 57 25
Width: 1035
VWidth: 0
Flags: W
HStem: -23 99<262.382 521.916> 412 98<374.499 621.614> 1126 99<470.245 718.103>
VStem: 162 162<559.474 917.823> 771 154<702.455 1072.43>
LayerCount: 2
Fore
SplineSet
731 549 m 1,0,1
 614 412 614 412 455.5 412 c 128,-1,2
 297 412 297 412 214 521 c 0,3,4
 162 589 162 589 162 668 c 128,-1,5
 162 747 162 747 181 818 c 1,6,7
 213 1003 213 1003 332.5 1114 c 128,-1,8
 452 1225 452 1225 627 1225 c 128,-1,9
 802 1225 802 1225 882 1073 c 0,10,11
 925 991 925 991 925 881 c 0,12,13
 925 768 925 768 895 639 c 1,14,15
 840 323 840 323 691.5 150 c 128,-1,16
 543 -23 543 -23 330 -23 c 0,17,18
 212 -23 212 -23 88 37 c 1,19,-1
 122 285 l 1,20,-1
 222 285 l 1,21,22
 221 274 221 274 221 263 c 0,23,24
 221 197 221 197 258 127 c 0,25,26
 285 76 285 76 373 76 c 0,27,28
 511 76 511 76 599 191.5 c 128,-1,29
 687 307 687 307 731 549 c 1,0,1
746 1044 m 0,30,31
 701 1126 701 1126 602 1126 c 0,32,33
 502 1126 502 1126 434 1046 c 128,-1,34
 366 966 366 966 336 818 c 0,35,36
 324 759 324 759 324 697 c 0,37,38
 324 637 324 637 348 590 c 0,39,40
 389 510 389 510 492 510 c 0,41,42
 593 510 593 510 661 587 c 128,-1,43
 729 664 729 664 755 809 c 1,44,45
 771 875 771 875 771 934 c 0,46,47
 771 998 771 998 746 1044 c 0,30,31
EndSplineSet
Validated: 3073
EndChar

StartChar: colon
Encoding: 282 58 26
Width: 504
VWidth: 0
Flags: W
HStem: -50 268<134.969 252.802> 475 267<224.5 342.844>
VStem: 93 201<-10.1274 176.691> 182 201<513.783 700.146>
LayerCount: 2
Fore
SplineSet
132.5 171 m 128,-1,1
 172 218 172 218 212 218 c 128,-1,2
 252 218 252 218 273 185 c 128,-1,3
 294 152 294 152 294 126.5 c 128,-1,4
 294 101 294 101 287 64 c 128,-1,5
 280 27 280 27 248 -11.5 c 128,-1,6
 216 -50 216 -50 175.5 -50 c 128,-1,7
 135 -50 135 -50 114 -17.5 c 128,-1,8
 93 15 93 15 93 69.5 c 128,-1,0
 93 124 93 124 132.5 171 c 128,-1,1
222 695 m 128,-1,10
 262 742 262 742 302.5 742 c 128,-1,11
 343 742 343 742 363 710 c 128,-1,12
 383 678 383 678 383 652 c 128,-1,13
 383 626 383 626 376.5 588.5 c 128,-1,14
 370 551 370 551 338 513 c 128,-1,15
 306 475 306 475 266 475 c 128,-1,16
 226 475 226 475 204 507.5 c 128,-1,17
 182 540 182 540 182 594 c 128,-1,9
 182 648 182 648 222 695 c 128,-1,10
EndSplineSet
Validated: 3073
EndChar

StartChar: semicolon
Encoding: 283 59 27
Width: 654
VWidth: 0
Flags: W
HStem: 475 267<360.511 493.171>
VStem: 258 182<29.9375 156> 317 220<521.416 697.863>
LayerCount: 2
Fore
SplineSet
74 -187 m 1,0,1
 222 -78 222 -78 258 126 c 1,2,-1
 264 156 l 1,3,-1
 440 156 l 1,4,5
 407 18 407 18 329.5 -80.5 c 128,-1,6
 252 -179 252 -179 120 -252 c 1,7,-1
 74 -187 l 1,0,1
360.5 697 m 128,-1,9
 404 742 404 742 448.5 742 c 128,-1,10
 493 742 493 742 515 709 c 128,-1,11
 537 676 537 676 537 650 c 0,12,13
 537 565 537 565 494.5 520 c 128,-1,14
 452 475 452 475 407 475 c 128,-1,15
 362 475 362 475 339.5 508 c 128,-1,16
 317 541 317 541 317 596.5 c 128,-1,8
 317 652 317 652 360.5 697 c 128,-1,9
EndSplineSet
Validated: 3073
EndChar

StartChar: less
Encoding: 284 60 28
Width: 1156
VWidth: 0
Flags: W
DStem2: 114 601 329 516 0.925369 0.379067<166.734 921.434> 329 516 114 434 0.925013 -0.379934<0 754.321>
LayerCount: 2
Fore
SplineSet
1027 803 m 1,0,-1
 329 516 l 1,1,-1
 1027 230 l 1,2,-1
 1027 59 l 1,3,-1
 114 434 l 1,4,-1
 114 601 l 1,5,-1
 1027 975 l 1,6,-1
 1027 803 l 1,0,-1
EndSplineSet
Validated: 3073
EndChar

StartChar: equal
Encoding: 285 61 29
Width: 1213
VWidth: 0
Flags: W
HStem: 272 161<147 1060> 600 161<147 1060>
LayerCount: 2
Fore
SplineSet
147 761 m 1,0,-1
 1060 761 l 1,1,-1
 1060 600 l 1,2,-1
 147 600 l 1,3,-1
 147 761 l 1,0,-1
147 433 m 1,4,-1
 1060 433 l 1,5,-1
 1060 272 l 1,6,-1
 147 272 l 1,7,-1
 147 433 l 1,4,-1
EndSplineSet
Validated: 3073
EndChar

StartChar: greater
Encoding: 286 62 30
Width: 1139
VWidth: 0
Flags: W
VStem: 819 211<328.5 706.5>
DStem2: 117 975 117 805 0.925369 -0.379067<64.4414 823.222> 117 229 117 59 0.925013 0.379934<0 758.781>
LayerCount: 2
Fore
SplineSet
117 805 m 1,0,-1
 117 975 l 1,1,-1
 1030 601 l 1,2,-1
 1030 434 l 1,3,-1
 117 59 l 1,4,-1
 117 229 l 1,5,-1
 819 517 l 1,6,-1
 117 805 l 1,0,-1
EndSplineSet
Validated: 3073
EndChar

StartChar: question
Encoding: 287 63 31
Width: 866
VWidth: 0
Flags: W
HStem: -23 267<166.438 306.078> 1126 99<301.05 572.619>
VStem: 110 87<937 999.123> 119 234<23.4158 196.559> 230 110<337 447> 615 161<828.199 1083.4>
DStem2: 160.023 -23 270.023 -23 0.190809 0.981627<387.727 625.21>
LayerCount: 2
Fore
SplineSet
119 81 m 0,0,1
 119 153 119 153 165 198.5 c 128,-1,2
 211 244 211 244 258.5 244 c 128,-1,3
 306 244 306 244 329.5 210 c 128,-1,4
 353 176 353 176 353 151 c 0,5,6
 353 67 353 67 307.5 22 c 128,-1,7
 262 -23 262 -23 214 -23 c 128,-1,8
 166 -23 166 -23 142.5 10.5 c 128,-1,9
 119 44 119 44 119 81 c 0,0,1
155 1132 m 1,10,11
 329 1225 329 1225 477.5 1225 c 128,-1,12
 626 1225 626 1225 715 1146 c 0,13,14
 776 1092 776 1092 776 1012 c 0,15,16
 776 975 776 975 763 933 c 1,17,18
 711 633 711 633 382 552 c 1,19,-1
 340 337 l 1,20,-1
 230 337 l 1,21,-1
 282 607 l 1,22,23
 561 672 561 672 607 906 c 1,24,25
 615 941 615 941 615 984 c 0,26,27
 615 1028 615 1028 586 1067 c 0,28,29
 542 1126 542 1126 450 1126 c 0,30,31
 268 1126 268 1126 197 937 c 1,32,-1
 110 937 l 1,33,-1
 155 1132 l 1,10,11
EndSplineSet
Validated: 3073
EndChar

StartChar: at
Encoding: 288 64 32
Width: 1533
VWidth: 0
Flags: W
HStem: -298 105<480.658 871.014> 57 117<614.694 807.509> 688 118<692.516 925.848> 1066 106<690.385 1114.62>
VStem: 108 121<65.8707 549.349> 438 134<214.374 539.467> 1346 68<458.783 805.992>
DStem2: 812.255 -298 951.613 -298 0.190809 0.981627<500.294 517.508 538.16 858.097 968.779 1104.3>
LayerCount: 2
Fore
SplineSet
1058 -132 m 1,0,1
 878 -298 878 -298 644 -298 c 0,2,3
 514 -298 514 -298 404.5 -243.5 c 128,-1,4
 295 -189 295 -189 222 -87 c 0,5,6
 108 72 108 72 108 276 c 0,7,8
 108 354 108 354 126 437 c 1,9,10
 180 746 180 746 400 958 c 0,11,12
 508 1061 508 1061 640.5 1116.5 c 128,-1,13
 773 1172 773 1172 918 1172 c 128,-1,14
 1063 1172 1063 1172 1177 1105 c 128,-1,15
 1291 1038 1291 1038 1355 913 c 0,16,17
 1414 799 1414 799 1414 667 c 0,18,19
 1414 609 1414 609 1402 549 c 1,20,21
 1365 333 1365 333 1227 206.5 c 128,-1,22
 1089 80 1089 80 886 80 c 1,23,-1
 911 210 l 1,24,25
 806 57 806 57 678 57 c 0,26,27
 551 57 551 57 483 161 c 0,28,29
 438 229 438 229 438 302 c 128,-1,30
 438 375 438 375 450 432 c 0,31,32
 486 599 486 599 582 702.5 c 128,-1,33
 678 806 678 806 807 806 c 128,-1,34
 936 806 936 806 997 653 c 1,35,-1
 1023 786 l 1,36,-1
 1162 786 l 1,37,-1
 1042 167 l 1,38,39
 1158 196 1158 196 1234.5 294.5 c 128,-1,40
 1311 393 1311 393 1335 541 c 1,41,42
 1346 593 1346 593 1346 634 c 0,43,44
 1346 752 1346 752 1291 853.5 c 128,-1,45
 1236 955 1236 955 1137 1010.5 c 128,-1,46
 1038 1066 1038 1066 910 1066 c 0,47,48
 781 1066 781 1066 636.5 998.5 c 128,-1,49
 492 931 492 931 386.5 782 c 128,-1,50
 281 633 281 633 247 437 c 1,51,52
 229 357 229 357 229 297 c 0,53,54
 229 123 229 123 300 15 c 1,55,56
 434 -193 434 -193 689 -193 c 0,57,58
 872 -193 872 -193 1030 -81 c 1,59,-1
 1058 -132 l 1,0,1
947 392 m 2,60,-1
 962 473 l 1,61,62
 969 505 969 505 969 547 c 0,63,64
 969 588 969 588 941 628 c 0,65,66
 899 688 899 688 814 688 c 128,-1,67
 729 688 729 688 668 620.5 c 128,-1,68
 607 553 607 553 584 432 c 1,69,70
 572 382 572 382 572 332 c 128,-1,71
 572 282 572 282 595 242 c 0,72,73
 635 174 635 174 719 174 c 2,74,75
 720 174 l 2,76,77
 805 174 805 174 867 235 c 128,-1,78
 929 296 929 296 947 392 c 2,60,-1
EndSplineSet
Validated: 3073
EndChar

StartChar: A
Encoding: 289 65 33
Width: 1222
VWidth: 0
Flags: HW
HStem: 0 106<37 131 245 335 772 890 1095 1184> 352 108<445 824> 1183 20G<740.678 893.737>
DStem2: 131 106 245 106 0.492632 0.870238<56.1601 338.714 462.751 1041.75> 890 1203 730 964 0.183693 -0.982984<205.542 718.233 828.253 1078.33>
LayerCount: 2
Fore
SplineSet
445 460 m 1,0,-1
 824 460 l 1,1,-1
 730 964 l 1,2,-1
 445 460 l 1,0,-1
23 0 m 1,3,-1
 37 106 l 1,4,-1
 131 106 l 1,5,-1
 752 1203 l 1,6,-1
 890 1203 l 1,7,-1
 1095 106 l 1,8,-1
 1199 106 l 1,9,-1
 1184 0 l 1,10,-1
 758 0 l 1,11,-1
 772 106 l 1,12,-1
 890 106 l 1,13,-1
 845 352 l 1,14,-1
 384 352 l 1,15,-1
 245 106 l 1,16,-1
 351 106 l 1,17,-1
 335 0 l 1,18,-1
 23 0 l 1,3,-1
EndSplineSet
EndChar

StartChar: B
Encoding: 290 66 34
Width: 1223
VWidth: 0
Flags: HW
HStem: 0 106<73 209 391 779.717> 596 107<507 835.812> 1096 107<278 401 583 921.159>
VStem: 906 180<244.402 548.148> 956 175<809.302 1058.46>
DStem2: 188.396 0 370.396 0 0.190809 0.981627<142.711 641.835 750.876 1116.43>
LayerCount: 2
Fore
SplineSet
906 436 m 0,0,1
 906 596 906 596 696 596 c 2,2,-1
 486 596 l 1,3,-1
 391 106 l 1,4,-1
 603 106 l 2,5,6
 731 106 731 106 801.5 165 c 128,-1,7
 872 224 872 224 895 352 c 1,8,9
 906 399 906 399 906 436 c 0,0,1
956 963 m 0,10,11
 956 1096 956 1096 762 1096 c 2,12,-1
 583 1096 l 1,13,-1
 507 703 l 1,14,-1
 687 703 l 2,15,16
 804 703 804 703 866.5 750.5 c 128,-1,17
 929 798 929 798 948 900 c 1,18,19
 956 935 956 935 956 963 c 0,10,11
59 0 m 1,20,-1
 73 106 l 1,21,-1
 209 106 l 1,22,-1
 401 1096 l 1,23,-1
 263 1096 l 1,24,-1
 278 1203 l 1,25,-1
 830 1203 l 2,26,27
 996 1203 996 1203 1078 1127 c 0,28,29
 1131 1078 1131 1078 1131 995 c 0,30,31
 1131 952 1131 952 1117 900 c 1,32,33
 1098 795 1098 795 1027 732.5 c 128,-1,34
 956 670 956 670 838 656 c 1,35,36
 974 637 974 637 1042 558 c 0,37,38
 1086 507 1086 507 1086 450 c 128,-1,39
 1086 393 1086 393 1073 347 c 1,40,41
 1041 168 1041 168 920.5 84 c 128,-1,42
 800 0 800 0 577 0 c 2,43,-1
 59 0 l 1,20,-1
EndSplineSet
Validated: 3073
EndChar

StartChar: C
Encoding: 291 67 35
Width: 1154
VWidth: 0
Flags: HW
HStem: -23 107<340.588 680.212> 1118 107<510.551 869.098>
VStem: 71 154<224.382 685.279> 966 101<835 916.136>
LayerCount: 2
Fore
SplineSet
503 84 m 0,0,1
 741 84 741 84 855 330 c 1,2,-1
 991 330 l 1,3,4
 835 -23 835 -23 491 -23 c 0,5,6
 278 -23 278 -23 166 136 c 0,7,8
 71 270 71 270 71 444 c 0,9,10
 71 518 71 518 88 601 c 1,11,12
 137 881 137 881 313 1053 c 128,-1,13
 489 1225 489 1225 729 1225 c 0,14,15
 902 1225 902 1225 1114 1101 c 1,16,-1
 1067 835 l 1,17,-1
 966 835 l 1,18,19
 966 981 966 981 899 1049.5 c 128,-1,20
 832 1118 832 1118 675.5 1118 c 128,-1,21
 519 1118 519 1118 407.5 986.5 c 128,-1,22
 296 855 296 855 251 601 c 1,23,24
 225 487 225 487 225 387.5 c 128,-1,25
 225 288 225 288 264 216 c 0,26,27
 335 84 335 84 503 84 c 0,0,1
EndSplineSet
Validated: 3073
EndChar

StartChar: D
Encoding: 292 68 36
Width: 1316
VWidth: 0
Flags: W
HStem: 0 106<73 209 391 736.242> 1096 107<278 401 583 909.992>
VStem: 1063 185<524.198 945.851>
DStem2: 188.396 0 370.396 0 0.190809 0.981627<142.711 1116.43>
LayerCount: 2
Fore
SplineSet
391 106 m 1,0,-1
 523 106 l 2,1,2
 730 106 730 106 864 234 c 128,-1,3
 998 362 998 362 1046 602 c 0,4,5
 1063 687 1063 687 1063 755 c 0,6,7
 1063 886 1063 886 1004 969 c 0,8,9
 914 1096 914 1096 711 1096 c 2,10,-1
 583 1096 l 1,11,-1
 391 106 l 1,0,-1
59 0 m 1,12,-1
 73 106 l 1,13,-1
 209 106 l 1,14,-1
 401 1096 l 1,15,-1
 263 1096 l 1,16,-1
 278 1203 l 1,17,-1
 721 1203 l 2,18,19
 1010 1203 1010 1203 1154 1044 c 0,20,21
 1248 940 1248 940 1248 784 c 0,22,23
 1248 701 1248 701 1222 603 c 1,24,25
 1171 319 1171 319 981 159.5 c 128,-1,26
 791 0 791 0 503 0 c 2,27,-1
 59 0 l 1,12,-1
EndSplineSet
Validated: 3073
EndChar

StartChar: E
Encoding: 293 69 37
Width: 1311
VWidth: 0
Flags: W
HStem: 0 123<394 925> 0 106<73 209> 587 123<509 837> 1080 123<580 1111> 1096 107<278 401>
VStem: 814 110<468 578> 892 110<759 869> 956 110<176 286> 1082 110<934 1044>
DStem2: 188.396 0 370.091 0 0.190809 0.981627<159.971 632.81 758.129 1116.43> 723.03 0 833.03 0 0.190809 0.981627<497.748 597.962 723.281 885.275> 901.091 0 1011 0 0.190809 0.981627<125.302 291.222 972.348 1100.21>
LayerCount: 2
Fore
SplineSet
59 0 m 1,0,-1
 73 106 l 1,1,-1
 209 106 l 1,2,-1
 401 1096 l 1,3,-1
 262 1096 l 1,4,-1
 278 1203 l 1,5,-1
 1245 1203 l 1,6,-1
 1192 934 l 1,7,-1
 1082 934 l 1,8,-1
 1111 1080 l 1,9,-1
 580 1080 l 1,10,-1
 509 710 l 1,11,-1
 861 710 l 1,12,-1
 892 869 l 1,13,-1
 1002 869 l 1,14,-1
 924 468 l 1,15,-1
 814 468 l 1,16,-1
 837 587 l 1,17,-1
 485 587 l 1,18,-1
 394 123 l 1,19,-1
 925 123 l 1,20,-1
 956 286 l 1,21,-1
 1066 286 l 1,22,-1
 1011 0 l 1,23,-1
 59 0 l 1,0,-1
EndSplineSet
Validated: 3073
EndChar

StartChar: F
Encoding: 294 70 38
Width: 1325
VWidth: 0
Flags: W
HStem: 0 106<73 209 391 542> 586 123<508 858> 1080 123<580 1123> 1096 107<278 401>
VStem: 835 110<466 576> 921 110<799 909> 1098 110<950 1060>
DStem2: 188.396 0 370.396 0 0.190809 0.981627<142.711 631.638 756.957 1116.43> 744.419 0 854.419 0 0.190809 0.981627<495.711 596.906 722.225 925.992>
LayerCount: 2
Fore
SplineSet
59 0 m 1,0,-1
 73 106 l 1,1,-1
 209 106 l 1,2,-1
 401 1096 l 1,3,-1
 262 1096 l 1,4,-1
 278 1203 l 1,5,-1
 1257 1203 l 1,6,-1
 1208 950 l 1,7,-1
 1098 950 l 1,8,-1
 1123 1080 l 1,9,-1
 580 1080 l 1,10,-1
 508 709 l 1,11,-1
 882 709 l 1,12,-1
 921 909 l 1,13,-1
 1031 909 l 1,14,-1
 945 466 l 1,15,-1
 835 466 l 1,16,-1
 858 586 l 1,17,-1
 484 586 l 1,18,-1
 391 106 l 1,19,-1
 557 106 l 1,20,-1
 542 0 l 1,21,-1
 59 0 l 1,0,-1
EndSplineSet
Validated: 3073
EndChar

StartChar: G
Encoding: 295 71 39
Width: 1255
VWidth: 0
Flags: W
HStem: -23 107<374.178 783.275> 455 107<742 926> 1118 107<552.936 932.784>
VStem: 71 172<216.444 678.749> 1034 100<840 920.341>
DStem2: 832.873 -23 1014.4 -23 0.190809 0.981627<162.475 486.987>
LayerCount: 2
Fore
SplineSet
1034 840 m 1,0,1
 1034 982 1034 982 964.5 1050 c 128,-1,2
 895 1118 895 1118 747 1118 c 0,3,4
 363 1118 363 1118 268 601 c 1,5,6
 243 491 243 491 243 389 c 0,7,8
 243 289 243 289 288 215 c 0,9,10
 366 84 366 84 551 84 c 0,11,12
 716 84 716 84 870 168 c 1,13,-1
 926 455 l 1,14,-1
 726 455 l 1,15,-1
 742 562 l 1,16,-1
 1128 562 l 1,17,-1
 1042 119 l 1,18,19
 816 -23 816 -23 554 -23 c 128,-1,20
 292 -23 292 -23 158 148 c 0,21,22
 71 259 71 259 71 415 c 0,23,24
 71 501 71 501 97 601 c 1,25,26
 149 886 149 886 334 1055.5 c 128,-1,27
 519 1225 519 1225 780 1225 c 0,28,29
 966 1225 966 1225 1182 1109 c 1,30,-1
 1134 840 l 1,31,-1
 1034 840 l 1,0,1
EndSplineSet
Validated: 3073
EndChar

StartChar: H
Encoding: 296 72 40
Width: 1550
VWidth: 0
Flags: W
HStem: 0 106<73 209 391 503 824 960 1141 1254> 588 123<508 1053> 1096 107<278 401 583 718 1029 1152 1333 1469>
DStem2: 188.396 0 370.396 0 0.190809 0.981627<142.711 633.601 758.92 1116.43> 939.396 0 1120.4 0 0.190809 0.981627<142.52 598.873 724.193 1116.43>
LayerCount: 2
Fore
SplineSet
59 0 m 1,0,-1
 73 106 l 1,1,-1
 209 106 l 1,2,-1
 401 1096 l 1,3,-1
 262 1096 l 1,4,-1
 278 1203 l 1,5,-1
 733 1203 l 1,6,-1
 718 1096 l 1,7,-1
 583 1096 l 1,8,-1
 508 711 l 1,9,-1
 1077 711 l 1,10,-1
 1152 1096 l 1,11,-1
 1013 1096 l 1,12,-1
 1029 1203 l 1,13,-1
 1484 1203 l 1,14,-1
 1469 1096 l 1,15,-1
 1333 1096 l 1,16,-1
 1141 106 l 1,17,-1
 1269 106 l 1,18,-1
 1254 0 l 1,19,-1
 810 0 l 1,20,-1
 824 106 l 1,21,-1
 960 106 l 1,22,-1
 1053 588 l 1,23,-1
 484 588 l 1,24,-1
 391 106 l 1,25,-1
 519 106 l 1,26,-1
 503 0 l 1,27,-1
 59 0 l 1,0,-1
EndSplineSet
Validated: 3073
EndChar

StartChar: I
Encoding: 297 73 41
Width: 799
VWidth: 0
Flags: W
HStem: 0 106<73 209 391 504> 1096 107<278 401 583 718>
VStem: 59 674
DStem2: 188.396 0 370.396 0 0.190809 0.981627<142.711 1116.43>
LayerCount: 2
Fore
SplineSet
391 106 m 1,0,-1
 520 106 l 1,1,-1
 504 0 l 1,2,-1
 59 0 l 1,3,-1
 73 106 l 1,4,-1
 209 106 l 1,5,-1
 401 1096 l 1,6,-1
 262 1096 l 1,7,-1
 278 1203 l 1,8,-1
 733 1203 l 1,9,-1
 718 1096 l 1,10,-1
 583 1096 l 1,11,-1
 391 106 l 1,0,-1
EndSplineSet
Validated: 3073
EndChar

StartChar: J
Encoding: 298 74 42
Width: 1005
VWidth: 0
Flags: W
HStem: -343 107<142.715 358.739> 1096 107<495 653 835 970>
VStem: 32 102<-131.311 -83>
DStem2: 373.414 -343 554.58 -343 0.190809 0.981627<169.355 1465.91>
LayerCount: 2
Fore
SplineSet
129 -132 m 0,0,1
 129 -236 129 -236 239 -236 c 0,2,3
 327 -236 327 -236 372.5 -177.5 c 128,-1,4
 418 -119 418 -119 450 51 c 1,5,-1
 653 1096 l 1,6,-1
 479 1096 l 1,7,-1
 495 1203 l 1,8,-1
 985 1203 l 1,9,-1
 970 1096 l 1,10,-1
 835 1096 l 1,11,-1
 630 45 l 1,12,13
 592 -160 592 -160 495.5 -251.5 c 128,-1,14
 399 -343 399 -343 222 -343 c 0,15,16
 106 -343 106 -343 0 -275 c 1,17,-1
 32 -83 l 1,18,-1
 134 -83 l 1,19,20
 129 -110 129 -110 129 -132 c 0,0,1
EndSplineSet
EndChar

StartChar: K
Encoding: 299 75 43
Width: 1425
VWidth: 0
Flags: W
HStem: 0 106<73 209 391 509 1093 1200> 1096 107<278 401 583 718 966 1062 1223 1343>
DStem2: 188.396 0 370.396 0 0.190809 0.981627<142.711 582.802 731.462 1116.43> 636 663 475 538 0.634295 -0.773091<0 690.162> 503 684 636 663 0.804746 0.59362<94.5651 694.424>
LayerCount: 2
Fore
SplineSet
59 0 m 1,0,-1
 73 106 l 1,1,-1
 209 106 l 1,2,-1
 401 1096 l 1,3,-1
 262 1096 l 1,4,-1
 278 1203 l 1,5,-1
 733 1203 l 1,6,-1
 718 1096 l 1,7,-1
 583 1096 l 1,8,-1
 503 684 l 1,9,-1
 1062 1096 l 1,10,-1
 950 1096 l 1,11,-1
 966 1203 l 1,12,-1
 1358 1203 l 1,13,-1
 1343 1096 l 1,14,-1
 1223 1096 l 1,15,-1
 636 663 l 1,16,-1
 1093 106 l 1,17,-1
 1214 106 l 1,18,-1
 1200 0 l 1,19,-1
 916 0 l 1,20,-1
 475 538 l 1,21,-1
 391 106 l 1,22,-1
 525 106 l 1,23,-1
 509 0 l 1,24,-1
 59 0 l 1,0,-1
EndSplineSet
Validated: 3073
EndChar

StartChar: L
Encoding: 300 76 44
Width: 1137
VWidth: 0
Flags: W
HStem: 0 123<394 892> 0 106<73 209> 1096 107<278 401 584 719>
VStem: 928 110<195 305>
DStem2: 188.396 0 370.091 0 0.190809 0.981627<159.971 1116.43> 868.091 0 978 0 0.190809 0.981627<125.302 310.827>
LayerCount: 2
Fore
SplineSet
59 0 m 1,0,-1
 73 106 l 1,1,-1
 209 106 l 1,2,-1
 401 1096 l 1,3,-1
 262 1096 l 1,4,-1
 278 1203 l 1,5,-1
 734 1203 l 1,6,-1
 719 1096 l 1,7,-1
 584 1096 l 1,8,-1
 394 123 l 1,9,-1
 892 123 l 1,10,-1
 928 305 l 1,11,-1
 1038 305 l 1,12,-1
 978 0 l 1,13,-1
 59 0 l 1,0,-1
EndSplineSet
Validated: 3073
EndChar

StartChar: M
Encoding: 301 77 45
Width: 1823
VWidth: 0
Flags: W
HStem: 0 106<73 209 319 443 1089 1225 1407 1527> 1096 107<265 401 1600 1742>
DStem2: 188.396 0 298.396 0 0.190809 0.981627<128.973 1008.17> 619 1203 487 969 0.292041 -0.956406<185.25 859.468> 870 381 851 193 0.568481 0.822696<0 771.129> 1204.4 0 1386.4 0 0.190809 0.981627<142.711 976.795>
LayerCount: 2
Fore
SplineSet
59 0 m 1,0,-1
 73 106 l 1,1,-1
 209 106 l 1,2,-1
 401 1096 l 1,3,-1
 249 1096 l 1,4,-1
 265 1203 l 1,5,-1
 619 1203 l 1,6,-1
 870 381 l 1,7,-1
 1438 1203 l 1,8,-1
 1757 1203 l 1,9,-1
 1742 1096 l 1,10,-1
 1600 1096 l 1,11,-1
 1407 106 l 1,12,-1
 1543 106 l 1,13,-1
 1527 0 l 1,14,-1
 1075 0 l 1,15,-1
 1089 106 l 1,16,-1
 1225 106 l 1,17,-1
 1390 959 l 1,18,-1
 851 193 l 1,19,-1
 724 193 l 1,20,-1
 487 969 l 1,21,-1
 319 106 l 1,22,-1
 459 106 l 1,23,-1
 443 0 l 1,24,-1
 59 0 l 1,0,-1
EndSplineSet
Validated: 3073
EndChar

StartChar: N
Encoding: 302 78 46
Width: 1584
VWidth: 0
Flags: W
HStem: -23 21G<1032.59 1145.9> 0 106<73 216 327 456> 1096 107<273 409 1114 1250 1360 1503>
DStem2: 190.925 -23 301.925 -23 0.190809 0.981627<152.594 1010.23> 583 1203 490 948 0.495561 -0.868573<175.399 1035.94> 1032.63 -23 1142 -23 0.190809 0.981627<332.102 1139.92>
LayerCount: 2
Fore
SplineSet
59 0 m 1,0,-1
 73 106 l 1,1,-1
 216 106 l 1,2,-1
 409 1096 l 1,3,-1
 256 1096 l 1,4,-1
 273 1203 l 1,5,-1
 583 1203 l 1,6,-1
 1096 303 l 1,7,-1
 1250 1096 l 1,8,-1
 1098 1096 l 1,9,-1
 1114 1203 l 1,10,-1
 1518 1203 l 1,11,-1
 1503 1096 l 1,12,-1
 1360 1096 l 1,13,-1
 1142 -23 l 1,14,-1
 1044 -23 l 1,15,-1
 490 948 l 1,16,-1
 327 106 l 1,17,-1
 472 106 l 1,18,-1
 456 0 l 1,19,-1
 59 0 l 1,0,-1
EndSplineSet
Validated: 3073
EndChar

StartChar: O
Encoding: 303 79 47
Width: 1218
VWidth: 0
Flags: W
HStem: -24 108<343.928 644.679> 1118 106<515.407 862.886>
VStem: 71 155<228.961 683.985> 983 167<534.635 995.291>
LayerCount: 2
Fore
SplineSet
266 214 m 0,0,1
 336 84 336 84 512 84 c 0,2,3
 865 84 865 84 958 601 c 1,4,5
 983 715 983 715 983 815 c 0,6,7
 983 916 983 916 943 988 c 0,8,9
 871 1118 871 1118 697 1118 c 0,10,11
 344 1118 344 1118 252 601 c 1,12,13
 226 487 226 487 226 387 c 128,-1,14
 226 287 226 287 266 214 c 0,0,1
167 136 m 0,15,16
 71 273 71 273 71 448 c 0,17,18
 71 519 71 519 92.5 632.5 c 128,-1,19
 114 746 114 746 172 861 c 1,20,21
 231 975 231 975 320 1060 c 0,22,23
 492 1224 492 1224 718 1224 c 128,-1,24
 944 1224 944 1224 1071 1054 c 0,25,26
 1150 948 1150 948 1150 798 c 0,27,28
 1150 708 1150 708 1121 601 c 1,29,30
 1071 313 1071 313 894 145 c 1,31,32
 619 -11 619 -11 511 -24 c 1,33,34
 504 -24 l 1,35,-1
 498 -24 l 2,36,37
 279 -24 279 -24 167 136 c 0,15,16
EndSplineSet
Validated: 3073
EndChar

StartChar: P
Encoding: 304 80 48
Width: 1173
VWidth: 0
Flags: W
HStem: 0 106<73 209 391 528> 516 108<491 831.794> 1096 107<278 401 583 903.457>
VStem: 949 163<755.627 1051.38>
DStem2: 188.396 0 370.396 0 0.190809 0.981627<142.711 560.252 670.275 1116.43>
LayerCount: 2
Fore
SplineSet
491 624 m 1,0,-1
 679 624 l 2,1,2
 785 624 785 624 851.5 684.5 c 128,-1,3
 918 745 918 745 939 860 c 1,4,5
 949 902 949 902 949 950 c 128,-1,6
 949 998 949 998 919 1036 c 0,7,8
 872 1096 872 1096 768 1096 c 2,9,-1
 583 1096 l 1,10,-1
 491 624 l 1,0,-1
59 0 m 1,11,-1
 73 106 l 1,12,-1
 209 106 l 1,13,-1
 401 1096 l 1,14,-1
 263 1096 l 1,15,-1
 278 1203 l 1,16,-1
 799 1203 l 2,17,18
 964 1203 964 1203 1053 1110 c 0,19,20
 1112 1049 1112 1049 1112 959 c 0,21,22
 1112 913 1112 913 1097 860 c 1,23,24
 1071 703 1071 703 962 609.5 c 128,-1,25
 853 516 853 516 693 516 c 2,26,-1
 470 516 l 1,27,-1
 391 106 l 1,28,-1
 543 106 l 1,29,-1
 528 0 l 1,30,-1
 59 0 l 1,11,-1
EndSplineSet
Validated: 3073
EndChar

StartChar: Q
Encoding: 305 81 49
Width: 1283
VWidth: 0
Flags: W
HStem: -264 185<714.284 1015> -27 107<387.099 571.886> 1118 107<556.44 900.137>
VStem: 73 199<220.684 714.203> 1015 200<485.383 982.103>
LayerCount: 2
Fore
SplineSet
654 -10 m 1,0,1
 713 -79 713 -79 865 -79 c 2,2,-1
 1046 -79 l 1,3,-1
 1015 -264 l 1,4,-1
 931 -264 l 2,5,6
 742 -264 742 -264 664 -182 c 1,7,8
 587 -123 587 -123 554 -27 c 1,9,10
 287 -27 287 -27 161 144 c 0,11,12
 73 263 73 263 73 439 c 0,13,14
 73 513 73 513 94 629 c 128,-1,15
 115 745 115 745 178.5 860 c 128,-1,16
 242 975 242 975 338 1060 c 0,17,18
 524 1225 524 1225 766.5 1225 c 128,-1,19
 1009 1225 1009 1225 1130 1053 c 0,20,21
 1215 933 1215 933 1215 759 c 0,22,23
 1215 685 1215 685 1200 600 c 0,24,25
 1155 361 1155 361 1010 199 c 128,-1,26
 865 37 865 37 654 -10 c 1,0,1
272 409 m 0,27,28
 272 80 272 80 551 80 c 0,29,30
 726 80 726 80 838.5 211 c 128,-1,31
 951 342 951 342 996 599 c 0,32,33
 1015 705 1015 705 1015 789 c 0,34,35
 1015 1118 1015 1118 736 1118 c 0,36,37
 561 1118 561 1118 448.5 987 c 128,-1,38
 336 856 336 856 291 599 c 0,39,40
 272 494 272 494 272 409 c 0,27,28
EndSplineSet
Validated: 3073
EndChar

StartChar: R
Encoding: 306 82 50
Width: 1346
VWidth: 0
Flags: W
HStem: 0 106<73 209 391 525 1094 1209> 548 108<497 741.413> 1096 107<278 401 583 932.247>
VStem: 969 213<780.865 1057.75>
DStem2: 188.396 0 370.396 0 0.190809 0.981627<142.711 592.809 702.832 1116.43> 991 439 806 383 0.296713 -0.954967<-146.985 348.565>
LayerCount: 2
Fore
SplineSet
845 594 m 1,0,1
 953 565 953 565 991 439 c 2,2,-1
 1094 106 l 1,3,-1
 1224 106 l 1,4,-1
 1209 0 l 1,5,-1
 925 0 l 1,6,-1
 806 383 l 1,7,8
 777 487 777 487 742.5 517.5 c 128,-1,9
 708 548 708 548 637 548 c 2,10,-1
 476 548 l 1,11,-1
 391 106 l 1,12,-1
 540 106 l 1,13,-1
 525 0 l 1,14,-1
 59 0 l 1,15,-1
 73 106 l 1,16,-1
 209 106 l 1,17,-1
 401 1096 l 1,18,-1
 262 1096 l 1,19,-1
 278 1203 l 1,20,-1
 872 1203 l 2,21,22
 1043 1203 1043 1203 1126 1118 c 0,23,24
 1182 1061 1182 1061 1182 973 c 0,25,26
 1182 930 1182 930 1169 880 c 1,27,28
 1121 630 1121 630 845 594 c 1,0,1
969 948 m 0,29,30
 969 1096 969 1096 790 1096 c 2,31,-1
 583 1096 l 1,32,-1
 497 656 l 1,33,-1
 707 656 l 2,34,35
 815 656 815 656 876 710 c 1,36,37
 934 763 934 763 960 876 c 0,38,39
 969 916 969 916 969 948 c 0,29,30
EndSplineSet
Validated: 3073
EndChar

StartChar: S
Encoding: 307 83 51
Width: 1062
VWidth: 0
Flags: W
HStem: -23 107<265.125 628.739> 1118 107<449.38 794.866>
VStem: 108 103<269.064 342> 201 152<747.25 994.274> 743 157<232.214 477.5> 850 101<886 969.682>
DStem2: 551 725 433 534 0.943521 -0.331313<-182.265 256.25>
LayerCount: 2
Fore
SplineSet
201 268 m 0,0,1
 201 84 201 84 437 84 c 0,2,3
 564 84 564 84 640.5 135.5 c 128,-1,4
 717 187 717 187 736 285 c 1,5,6
 743 313 743 313 743 346 c 128,-1,7
 743 379 743 379 714.5 413.5 c 128,-1,8
 686 448 686 448 564 488 c 1,9,-1
 433 534 l 1,10,11
 289 588 289 588 234 669 c 0,12,13
 201 718 201 718 201 776.5 c 128,-1,14
 201 835 201 835 215 891 c 1,15,16
 242 1050 242 1050 355.5 1137.5 c 128,-1,17
 469 1225 469 1225 647 1225 c 0,18,19
 798 1225 798 1225 994 1137 c 1,20,-1
 951 886 l 1,21,-1
 850 886 l 1,22,23
 850 928 l 2,24,25
 850 1010 850 1010 802 1068 c 1,26,27
 762 1118 762 1118 632 1118 c 0,28,29
 394 1118 394 1118 359 935 c 1,30,31
 353 909 353 909 353 875.5 c 128,-1,32
 353 842 353 842 384.5 805 c 128,-1,33
 416 768 416 768 551 725 c 1,34,-1
 675 682 l 1,35,36
 811 630 811 630 866 552 c 0,37,38
 900 505 900 505 900 450 c 0,39,40
 900 393 900 393 886 341 c 1,41,42
 824 -23 824 -23 419 -23 c 0,43,44
 237 -23 237 -23 61 78 c 1,45,-1
 108 342 l 1,46,-1
 211 342 l 1,47,48
 201 302 201 302 201 268 c 0,0,1
EndSplineSet
Validated: 3073
EndChar

StartChar: T
Encoding: 308 84 52
Width: 1284
VWidth: 0
Flags: W
HStem: 0 106<263 399 580 692> 1084 119<256 589 771 1083>
VStem: 118 110<943 1053> 1049 110<909 1019>
DStem2: 378.396 0 559.396 0 0.190809 0.981627<142.52 1104.27> 872.308 0 982.308 0 0.190809 0.981627<947.003 1104.29>
LayerCount: 2
Fore
SplineSet
249 0 m 1,0,-1
 263 106 l 1,1,-1
 399 106 l 1,2,-1
 589 1084 l 1,3,-1
 256 1084 l 1,4,-1
 228 943 l 1,5,-1
 118 943 l 1,6,-1
 168 1203 l 1,7,-1
 1216 1203 l 1,8,-1
 1159 909 l 1,9,-1
 1049 909 l 1,10,-1
 1083 1084 l 1,11,-1
 771 1084 l 1,12,-1
 580 106 l 1,13,-1
 707 106 l 1,14,-1
 692 0 l 1,15,-1
 249 0 l 1,0,-1
EndSplineSet
Validated: 3073
EndChar

StartChar: U
Encoding: 309 85 53
Width: 1406
VWidth: 0
Flags: W
HStem: -23 131<395.542 780.705> 1096 107<159 280 461 597 951 1080 1190 1325>
VStem: 135 187<177.8 579.203>
DStem2: 61.866 -23 242.95 -23 0.190809 0.981627<389.746 1140.06> 861.95 -23 972.866 -23 0.190809 0.981627<249.259 1140.05>
LayerCount: 2
Fore
SplineSet
280 1096 m 1,0,-1
 143 1096 l 1,1,-1
 159 1203 l 1,2,-1
 612 1203 l 1,3,-1
 597 1096 l 1,4,-1
 461 1096 l 1,5,-1
 345 502 l 1,6,7
 322 400 322 400 322 321 c 128,-1,8
 322 242 322 242 353 195 c 0,9,10
 411 108 411 108 581.5 108 c 128,-1,11
 752 108 752 108 837.5 195 c 128,-1,12
 923 282 923 282 964 502 c 1,13,-1
 1080 1096 l 1,14,-1
 935 1096 l 1,15,-1
 951 1203 l 1,16,-1
 1340 1203 l 1,17,-1
 1325 1096 l 1,18,-1
 1190 1096 l 1,19,-1
 1072 487 l 1,20,21
 1020 208 1020 208 895 92.5 c 128,-1,22
 770 -23 770 -23 523 -23 c 128,-1,23
 276 -23 276 -23 187 93 c 0,24,25
 135 161 135 161 135 266.5 c 128,-1,26
 135 372 135 372 161 487 c 1,27,-1
 280 1096 l 1,0,-1
EndSplineSet
Validated: 3073
EndChar

StartChar: V
Encoding: 310 86 54
Width: 1397
VWidth: 0
Flags: W
HStem: 0 21G<438.314 603.314> 1096 107<149 240 445 563 992 1099 1212 1315>
DStem2: 445 1096 240 1096 0.181254 -0.983436<0 886.738> 606 224 592 0 0.492371 0.870385<0 1001.71>
LayerCount: 2
Fore
SplineSet
445 1096 m 1,0,-1
 606 224 l 1,1,-1
 1099 1096 l 1,2,-1
 976 1096 l 1,3,-1
 992 1203 l 1,4,-1
 1330 1203 l 1,5,-1
 1315 1096 l 1,6,-1
 1212 1096 l 1,7,-1
 592 0 l 1,8,-1
 442 0 l 1,9,-1
 240 1096 l 1,10,-1
 134 1096 l 1,11,-1
 149 1203 l 1,12,-1
 578 1203 l 1,13,-1
 563 1096 l 1,14,-1
 445 1096 l 1,0,-1
EndSplineSet
Validated: 3073
EndChar

StartChar: W
Encoding: 311 87 55
Width: 1858
VWidth: 0
Flags: W
HStem: 0 21G<238 488.548 923 1158.56> 1096 107<148 238 427 559 1458 1573 1673 1777>
VStem: 238 189<260 1096> 923 160<248 930>
LayerCount: 2
Fore
SplineSet
1149 0 m 1,0,-1
 923 0 l 1,1,-1
 923 930 l 1,2,-1
 479 0 l 1,3,-1
 238 0 l 1,4,-1
 238 1096 l 1,5,-1
 133 1096 l 1,6,-1
 148 1203 l 1,7,-1
 574 1203 l 1,8,-1
 559 1096 l 1,9,-1
 427 1096 l 1,10,-1
 427 260 l 1,11,-1
 951 1203 l 1,12,-1
 1083 1203 l 1,13,-1
 1083 248 l 1,14,-1
 1573 1096 l 1,15,-1
 1441 1096 l 1,16,-1
 1458 1203 l 1,17,-1
 1792 1203 l 1,18,-1
 1777 1096 l 1,19,-1
 1673 1096 l 1,20,-1
 1149 0 l 1,0,-1
EndSplineSet
Validated: 3073
EndChar

StartChar: X
Encoding: 312 88 56
Width: 1404
VWidth: 0
Flags: W
HStem: 0 106<74 197 317 421 710 837 1069 1168> 1096 107<269 368 601 726 942 1083 1204 1323>
DStem2: 197 106 317 106 0.6673 0.744789<80.0761 589.233 856.204 1328.57> 601 1096 368 1096 0.428126 -0.903719<0 389.606 576.148 995.72>
LayerCount: 2
Fore
SplineSet
657 485 m 1,0,-1
 317 106 l 1,1,-1
 436 106 l 1,2,-1
 421 0 l 1,3,-1
 60 0 l 1,4,-1
 74 106 l 1,5,-1
 197 106 l 1,6,-1
 615 574 l 1,7,-1
 368 1096 l 1,8,-1
 254 1096 l 1,9,-1
 269 1203 l 1,10,-1
 741 1203 l 1,11,-1
 726 1096 l 1,12,-1
 601 1096 l 1,13,-1
 768 744 l 1,14,-1
 1083 1096 l 1,15,-1
 925 1096 l 1,16,-1
 942 1203 l 1,17,-1
 1338 1203 l 1,18,-1
 1323 1096 l 1,19,-1
 1204 1096 l 1,20,-1
 809 656 l 1,21,-1
 1069 106 l 1,22,-1
 1183 106 l 1,23,-1
 1168 0 l 1,24,-1
 696 0 l 1,25,-1
 710 106 l 1,26,-1
 837 106 l 1,27,-1
 657 485 l 1,0,-1
EndSplineSet
Validated: 3073
EndChar

StartChar: Y
Encoding: 313 89 57
Width: 1299
VWidth: 0
Flags: W
HStem: 0 106<261 397 579 695> 1096 107<149 234 453 576 894 1000 1115 1216>
DStem2: 453 1096 234 1096 0.394308 -0.918978<0 476.642> 376.396 0 558.396 0 0.190809 0.981627<142.711 534.932> 641 658 664 545 0.633391 0.773832<0 566.326>
LayerCount: 2
Fore
SplineSet
247 0 m 1,0,-1
 261 106 l 1,1,-1
 397 106 l 1,2,-1
 479 525 l 1,3,-1
 234 1096 l 1,4,-1
 134 1096 l 1,5,-1
 149 1203 l 1,6,-1
 591 1203 l 1,7,-1
 576 1096 l 1,8,-1
 453 1096 l 1,9,-1
 641 658 l 1,10,-1
 1000 1096 l 1,11,-1
 877 1096 l 1,12,-1
 894 1203 l 1,13,-1
 1231 1203 l 1,14,-1
 1216 1096 l 1,15,-1
 1115 1096 l 1,16,-1
 664 545 l 1,17,-1
 579 106 l 1,18,-1
 711 106 l 1,19,-1
 695 0 l 1,20,-1
 247 0 l 1,0,-1
EndSplineSet
Validated: 3073
EndChar

StartChar: Z
Encoding: 314 90 58
Width: 1361
VWidth: 0
Flags: W
HStem: 0 123<352 979> 1080 123<413 1003>
VStem: 263 110<875 985> 1009 109<166 275>
DStem2: 70 72 352 123 0.679277 0.733882<228.984 1373.52> 92.9172 0 202.917 0 0.190809 0.981627<912.366 1121.23> 955.091 0 1065 0 0.190809 0.981627<125.302 280.234>
LayerCount: 2
Fore
SplineSet
60 0 m 1,0,-1
 70 72 l 1,1,-1
 1003 1080 l 1,2,-1
 413 1080 l 1,3,-1
 373 875 l 1,4,-1
 263 875 l 1,5,-1
 327 1203 l 1,6,-1
 1295 1203 l 1,7,-1
 1285 1131 l 1,8,-1
 352 123 l 1,9,-1
 979 123 l 1,10,-1
 1009 275 l 1,11,-1
 1118 275 l 1,12,-1
 1065 0 l 1,13,-1
 60 0 l 1,0,-1
EndSplineSet
Validated: 3073
EndChar

StartChar: bracketleft
Encoding: 315 91 59
Width: 799
VWidth: 0
Flags: W
HStem: -229 107<266 441> 1157 107<515 710>
VStem: 75 649
DStem2: 75 -229 245.201 -229 0.190809 0.981627<141.479 1444.49>
LayerCount: 2
Fore
SplineSet
365 1264 m 1,0,-1
 724 1264 l 1,1,-1
 710 1157 l 1,2,-1
 515 1157 l 1,3,-1
 266 -122 l 1,4,-1
 456 -122 l 1,5,-1
 441 -229 l 1,6,-1
 75 -229 l 1,7,-1
 365 1264 l 1,0,-1
EndSplineSet
Validated: 3073
EndChar

StartChar: backslash
Encoding: 316 92 60
Width: 545
VWidth: 0
Flags: W
HStem: 1183 20G<124 269.544>
VStem: 124 143<1060 1203> 297 143<-157 -14>
DStem2: 267 1203 124 1203 0.126189 -0.992006<0 1352.91>
LayerCount: 2
Fore
SplineSet
267 1203 m 1,0,-1
 440 -157 l 1,1,-1
 297 -157 l 1,2,-1
 124 1203 l 1,3,-1
 267 1203 l 1,0,-1
EndSplineSet
Validated: 3073
EndChar

StartChar: bracketright
Encoding: 317 93 61
Width: 803
VWidth: 0
Flags: W
HStem: -229 107<85 280> 1157 107<346 529>
VStem: 71 651
DStem2: 259.201 -229 431 -229 0.190809 0.981627<109.003 1412.02>
LayerCount: 2
Fore
SplineSet
722 1264 m 1,0,-1
 431 -229 l 1,1,-1
 71 -229 l 1,2,-1
 85 -122 l 1,3,-1
 280 -122 l 1,4,-1
 529 1157 l 1,5,-1
 330 1157 l 1,6,-1
 346 1264 l 1,7,-1
 722 1264 l 1,0,-1
EndSplineSet
Validated: 3073
EndChar

StartChar: asciicircum
Encoding: 318 94 62
Width: 1124
VWidth: 0
Flags: W
HStem: 1027 176<410 725>
LayerCount: 2
Fore
SplineSet
637 1203 m 1,0,-1
 1024 646 l 1,1,-1
 915 646 l 1,2,-1
 568 1027 l 1,3,-1
 221 646 l 1,4,-1
 111 646 l 1,5,-1
 498 1203 l 1,6,-1
 637 1203 l 1,0,-1
EndSplineSet
Validated: 3073
EndChar

StartChar: underscore
Encoding: 319 95 63
Width: 1124
VWidth: 0
Flags: W
HStem: -398 81<198 927>
LayerCount: 2
Fore
SplineSet
927 -317 m 1,0,-1
 927 -398 l 1,1,-1
 198 -398 l 1,2,-1
 198 -317 l 1,3,-1
 927 -317 l 1,0,-1
EndSplineSet
Validated: 3073
EndChar

StartChar: grave
Encoding: 320 96 64
Width: 502
VWidth: 0
Flags: W
HStem: 978 377
VStem: 112 273
LayerCount: 2
Fore
SplineSet
252 1355 m 1,0,-1
 385 978 l 1,1,-1
 302 978 l 1,2,-1
 112 1355 l 1,3,-1
 252 1355 l 1,0,-1
EndSplineSet
Validated: 3073
EndChar

StartChar: a
Encoding: 321 97 65
Width: 1357
VWidth: 0
Flags: W
HStem: 0 106<74 168 282 372 809 927 1132 1221> 352 108<482 861> 1183 20G<777.678 930.737>
DStem2: 168 106 282 106 0.492632 0.870238<56.1601 338.714 462.751 1041.75> 927 1203 767 964 0.183693 -0.982984<205.542 718.233 828.253 1078.33>
LayerCount: 2
Fore
SplineSet
482 460 m 1,0,-1
 861 460 l 1,1,-1
 767 964 l 1,2,-1
 482 460 l 1,0,-1
60 0 m 1,3,-1
 74 106 l 1,4,-1
 168 106 l 1,5,-1
 789 1203 l 1,6,-1
 927 1203 l 1,7,-1
 1132 106 l 1,8,-1
 1236 106 l 1,9,-1
 1221 0 l 1,10,-1
 795 0 l 1,11,-1
 809 106 l 1,12,-1
 927 106 l 1,13,-1
 882 352 l 1,14,-1
 421 352 l 1,15,-1
 282 106 l 1,16,-1
 388 106 l 1,17,-1
 372 0 l 1,18,-1
 60 0 l 1,3,-1
EndSplineSet
Validated: 3073
EndChar

StartChar: b
Encoding: 322 98 66
Width: 1203
VWidth: 0
Flags: W
HStem: 0 106<73 209 391 779.717> 596 107<507 835.812> 1096 107<278 401 583 921.159>
VStem: 906 180<244.402 548.148> 956 175<809.302 1058.46>
DStem2: 188.396 0 370.396 0 0.190809 0.981627<142.711 641.835 750.876 1116.43>
LayerCount: 2
Fore
SplineSet
906 436 m 0,0,1
 906 596 906 596 696 596 c 2,2,-1
 486 596 l 1,3,-1
 391 106 l 1,4,-1
 603 106 l 2,5,6
 731 106 731 106 801.5 165 c 128,-1,7
 872 224 872 224 895 352 c 1,8,9
 906 399 906 399 906 436 c 0,0,1
956 963 m 0,10,11
 956 1096 956 1096 762 1096 c 2,12,-1
 583 1096 l 1,13,-1
 507 703 l 1,14,-1
 687 703 l 2,15,16
 804 703 804 703 866.5 750.5 c 128,-1,17
 929 798 929 798 948 900 c 1,18,19
 956 935 956 935 956 963 c 0,10,11
59 0 m 1,20,-1
 73 106 l 1,21,-1
 209 106 l 1,22,-1
 401 1096 l 1,23,-1
 263 1096 l 1,24,-1
 278 1203 l 1,25,-1
 830 1203 l 2,26,27
 996 1203 996 1203 1078 1127 c 0,28,29
 1131 1078 1131 1078 1131 995 c 0,30,31
 1131 952 1131 952 1117 900 c 1,32,33
 1098 795 1098 795 1027 732.5 c 128,-1,34
 956 670 956 670 838 656 c 1,35,36
 974 637 974 637 1042 558 c 0,37,38
 1086 507 1086 507 1086 450 c 128,-1,39
 1086 393 1086 393 1073 347 c 1,40,41
 1041 168 1041 168 920.5 84 c 128,-1,42
 800 0 800 0 577 0 c 2,43,-1
 59 0 l 1,20,-1
EndSplineSet
Validated: 3073
EndChar

StartChar: c
Encoding: 323 99 67
Width: 1180
VWidth: 0
Flags: W
HStem: -23 107<340.588 680.212> 1118 107<510.551 869.098>
VStem: 71 154<224.382 685.279> 966 101<835 916.136>
LayerCount: 2
Fore
SplineSet
503 84 m 0,0,1
 741 84 741 84 855 330 c 1,2,-1
 991 330 l 1,3,4
 835 -23 835 -23 491 -23 c 0,5,6
 278 -23 278 -23 166 136 c 0,7,8
 71 270 71 270 71 444 c 0,9,10
 71 518 71 518 88 601 c 1,11,12
 137 881 137 881 313 1053 c 128,-1,13
 489 1225 489 1225 729 1225 c 0,14,15
 902 1225 902 1225 1114 1101 c 1,16,-1
 1067 835 l 1,17,-1
 966 835 l 1,18,19
 966 981 966 981 899 1049.5 c 128,-1,20
 832 1118 832 1118 675.5 1118 c 128,-1,21
 519 1118 519 1118 407.5 986.5 c 128,-1,22
 296 855 296 855 251 601 c 1,23,24
 225 487 225 487 225 387.5 c 128,-1,25
 225 288 225 288 264 216 c 0,26,27
 335 84 335 84 503 84 c 0,0,1
EndSplineSet
Validated: 3073
EndChar

StartChar: d
Encoding: 324 100 68
Width: 1316
VWidth: 0
Flags: W
HStem: 0 106<73 209 391 736.242> 1096 107<278 401 583 909.992>
VStem: 1063 185<524.198 945.851>
DStem2: 188.396 0 370.396 0 0.190809 0.981627<142.711 1116.43>
LayerCount: 2
Fore
SplineSet
391 106 m 1,0,-1
 523 106 l 2,1,2
 730 106 730 106 864 234 c 128,-1,3
 998 362 998 362 1046 602 c 0,4,5
 1063 687 1063 687 1063 755 c 0,6,7
 1063 886 1063 886 1004 969 c 0,8,9
 914 1096 914 1096 711 1096 c 2,10,-1
 583 1096 l 1,11,-1
 391 106 l 1,0,-1
59 0 m 1,12,-1
 73 106 l 1,13,-1
 209 106 l 1,14,-1
 401 1096 l 1,15,-1
 263 1096 l 1,16,-1
 278 1203 l 1,17,-1
 721 1203 l 2,18,19
 1010 1203 1010 1203 1154 1044 c 0,20,21
 1248 940 1248 940 1248 784 c 0,22,23
 1248 701 1248 701 1222 603 c 1,24,25
 1171 319 1171 319 981 159.5 c 128,-1,26
 791 0 791 0 503 0 c 2,27,-1
 59 0 l 1,12,-1
EndSplineSet
Validated: 3073
EndChar

StartChar: e
Encoding: 325 101 69
Width: 1311
VWidth: 0
Flags: W
HStem: 0 123<394 925> 0 106<73 209> 587 123<509 837> 1080 123<580 1111> 1096 107<278 401>
VStem: 814 110<468 578> 892 110<759 869> 956 110<176 286> 1082 110<934 1044>
DStem2: 188.396 0 370.091 0 0.190809 0.981627<159.971 632.81 758.129 1116.43> 723.03 0 833.03 0 0.190809 0.981627<497.748 597.962 723.281 885.275> 901.091 0 1011 0 0.190809 0.981627<125.302 291.222 972.348 1100.21>
LayerCount: 2
Fore
SplineSet
59 0 m 1,0,-1
 73 106 l 1,1,-1
 209 106 l 1,2,-1
 401 1096 l 1,3,-1
 262 1096 l 1,4,-1
 278 1203 l 1,5,-1
 1245 1203 l 1,6,-1
 1192 934 l 1,7,-1
 1082 934 l 1,8,-1
 1111 1080 l 1,9,-1
 580 1080 l 1,10,-1
 509 710 l 1,11,-1
 861 710 l 1,12,-1
 892 869 l 1,13,-1
 1002 869 l 1,14,-1
 924 468 l 1,15,-1
 814 468 l 1,16,-1
 837 587 l 1,17,-1
 485 587 l 1,18,-1
 394 123 l 1,19,-1
 925 123 l 1,20,-1
 956 286 l 1,21,-1
 1066 286 l 1,22,-1
 1011 0 l 1,23,-1
 59 0 l 1,0,-1
EndSplineSet
Validated: 3073
EndChar

StartChar: f
Encoding: 326 102 70
Width: 1325
VWidth: 0
Flags: W
HStem: 0 106<73 209 391 542> 586 123<508 858> 1080 123<580 1123> 1096 107<278 401>
VStem: 835 110<466 576> 921 110<799 909> 1098 110<950 1060>
DStem2: 188.396 0 370.396 0 0.190809 0.981627<142.711 631.638 756.957 1116.43> 744.419 0 854.419 0 0.190809 0.981627<495.711 596.906 722.225 925.992>
LayerCount: 2
Fore
SplineSet
59 0 m 1,0,-1
 73 106 l 1,1,-1
 209 106 l 1,2,-1
 401 1096 l 1,3,-1
 262 1096 l 1,4,-1
 278 1203 l 1,5,-1
 1257 1203 l 1,6,-1
 1208 950 l 1,7,-1
 1098 950 l 1,8,-1
 1123 1080 l 1,9,-1
 580 1080 l 1,10,-1
 508 709 l 1,11,-1
 882 709 l 1,12,-1
 921 909 l 1,13,-1
 1031 909 l 1,14,-1
 945 466 l 1,15,-1
 835 466 l 1,16,-1
 858 586 l 1,17,-1
 484 586 l 1,18,-1
 391 106 l 1,19,-1
 557 106 l 1,20,-1
 542 0 l 1,21,-1
 59 0 l 1,0,-1
EndSplineSet
Validated: 3073
EndChar

StartChar: g
Encoding: 327 103 71
Width: 1255
VWidth: 0
Flags: W
HStem: -23 107<374.178 783.275> 455 107<742 926> 1118 107<553.86 929.89>
VStem: 71 172<216.444 678.618> 1034 100<840 920.341>
DStem2: 832.873 -23 1014.4 -23 0.190809 0.981627<162.475 486.987>
LayerCount: 2
Fore
SplineSet
1034 840 m 1,0,1
 1034 982 1034 982 964.5 1050 c 128,-1,2
 895 1118 895 1118 747 1118 c 0,3,4
 363 1118 363 1118 268 601 c 1,5,6
 244 494 244 494 243 392 c 0,7,8
 243 290 243 290 288 215 c 0,9,10
 366 84 366 84 551 84 c 0,11,12
 716 84 716 84 870 168 c 1,13,-1
 926 455 l 1,14,-1
 726 455 l 1,15,-1
 742 562 l 1,16,-1
 1128 562 l 1,17,-1
 1042 119 l 1,18,19
 816 -23 816 -23 554 -23 c 128,-1,20
 292 -23 292 -23 158 148 c 0,21,22
 71 259 71 259 71 415 c 0,23,24
 71 501 71 501 97 601 c 1,25,26
 162 922 162 922 312 1074 c 5,27,28
 459 1225 459 1225 776 1225 c 2,29,-1
 780 1225 l 2,30,31
 966 1225 966 1225 1182 1109 c 1,32,-1
 1134 840 l 1,33,-1
 1034 840 l 1,0,1
EndSplineSet
Validated: 3073
EndChar

StartChar: h
Encoding: 328 104 72
Width: 1550
VWidth: 0
Flags: W
HStem: 0 106<73 209 391 503 824 960 1141 1254> 588 123<508 1053> 1096 107<278 401 583 718 1029 1152 1333 1469>
DStem2: 188.396 0 370.396 0 0.190809 0.981627<142.711 633.601 758.92 1116.43> 939.396 0 1120.4 0 0.190809 0.981627<142.52 598.873 724.193 1116.43>
LayerCount: 2
Fore
SplineSet
59 0 m 1,0,-1
 73 106 l 1,1,-1
 209 106 l 1,2,-1
 401 1096 l 1,3,-1
 262 1096 l 1,4,-1
 278 1203 l 1,5,-1
 733 1203 l 1,6,-1
 718 1096 l 1,7,-1
 583 1096 l 1,8,-1
 508 711 l 1,9,-1
 1077 711 l 1,10,-1
 1152 1096 l 1,11,-1
 1013 1096 l 1,12,-1
 1029 1203 l 1,13,-1
 1484 1203 l 1,14,-1
 1469 1096 l 1,15,-1
 1333 1096 l 1,16,-1
 1141 106 l 1,17,-1
 1269 106 l 1,18,-1
 1254 0 l 1,19,-1
 810 0 l 1,20,-1
 824 106 l 1,21,-1
 960 106 l 1,22,-1
 1053 588 l 1,23,-1
 484 588 l 1,24,-1
 391 106 l 1,25,-1
 519 106 l 1,26,-1
 503 0 l 1,27,-1
 59 0 l 1,0,-1
EndSplineSet
Validated: 3073
EndChar

StartChar: i
Encoding: 329 105 73
Width: 799
VWidth: 0
Flags: W
HStem: 0 106<73 209 391 504> 1096 107<278 401 583 718>
VStem: 59 674
DStem2: 188.396 0 370.396 0 0.190809 0.981627<142.711 1116.43>
LayerCount: 2
Fore
SplineSet
391 106 m 1,0,-1
 520 106 l 1,1,-1
 504 0 l 1,2,-1
 59 0 l 1,3,-1
 73 106 l 1,4,-1
 209 106 l 1,5,-1
 401 1096 l 1,6,-1
 262 1096 l 1,7,-1
 278 1203 l 1,8,-1
 733 1203 l 1,9,-1
 718 1096 l 1,10,-1
 583 1096 l 1,11,-1
 391 106 l 1,0,-1
EndSplineSet
Validated: 3073
EndChar

StartChar: j
Encoding: 330 106 74
Width: 1101
VWidth: 0
Flags: W
HStem: -343 107<192.715 408.739> 1096 107<545 703 885 1020>
VStem: 82 102<-131.311 -83>
DStem2: 423.414 -343 604.58 -343 0.190809 0.981627<169.355 1465.91>
LayerCount: 2
Fore
SplineSet
179 -132 m 0,0,1
 179 -236 179 -236 289 -236 c 0,2,3
 377 -236 377 -236 422.5 -177.5 c 128,-1,4
 468 -119 468 -119 500 51 c 1,5,-1
 703 1096 l 1,6,-1
 529 1096 l 1,7,-1
 545 1203 l 1,8,-1
 1035 1203 l 1,9,-1
 1020 1096 l 1,10,-1
 885 1096 l 1,11,-1
 680 45 l 1,12,13
 642 -160 642 -160 545.5 -251.5 c 128,-1,14
 449 -343 449 -343 272 -343 c 0,15,16
 156 -343 156 -343 50 -275 c 1,17,-1
 82 -83 l 1,18,-1
 184 -83 l 1,19,20
 179 -110 179 -110 179 -132 c 0,0,1
EndSplineSet
Validated: 3073
EndChar

StartChar: k
Encoding: 331 107 75
Width: 1425
VWidth: 0
Flags: W
HStem: 0 106<73 209 391 509 1093 1200> 1096 107<278 401 583 718 966 1062 1223 1343>
DStem2: 188.396 0 370.396 0 0.190809 0.981627<142.711 582.802 731.462 1116.43> 636 663 475 538 0.634295 -0.773091<0 690.162> 503 684 636 663 0.804746 0.59362<94.5651 694.424>
LayerCount: 2
Fore
SplineSet
59 0 m 1,0,-1
 73 106 l 1,1,-1
 209 106 l 1,2,-1
 401 1096 l 1,3,-1
 262 1096 l 1,4,-1
 278 1203 l 1,5,-1
 733 1203 l 1,6,-1
 718 1096 l 1,7,-1
 583 1096 l 1,8,-1
 503 684 l 1,9,-1
 1062 1096 l 1,10,-1
 950 1096 l 1,11,-1
 966 1203 l 1,12,-1
 1358 1203 l 1,13,-1
 1343 1096 l 1,14,-1
 1223 1096 l 1,15,-1
 636 663 l 1,16,-1
 1093 106 l 1,17,-1
 1214 106 l 1,18,-1
 1200 0 l 1,19,-1
 916 0 l 1,20,-1
 475 538 l 1,21,-1
 391 106 l 1,22,-1
 525 106 l 1,23,-1
 509 0 l 1,24,-1
 59 0 l 1,0,-1
EndSplineSet
Validated: 3073
EndChar

StartChar: l
Encoding: 332 108 76
Width: 1137
VWidth: 0
Flags: W
HStem: 0 119<73 209 394 892> 1096 107<278 401 584 719>
VStem: 928 110<195 305>
DStem2: 185.869 0 370.091 0 0.190809 0.981627<160.453 1116.91> 868.091 0 978 0 0.190809 0.981627<125.302 310.827>
LayerCount: 2
Fore
SplineSet
59 0 m 1,0,-1
 73 119 l 1,1,-1
 209 119 l 1,2,-1
 401 1096 l 1,3,-1
 262 1096 l 1,4,-1
 278 1203 l 1,5,-1
 734 1203 l 1,6,-1
 719 1096 l 1,7,-1
 584 1096 l 1,8,-1
 394 123 l 1,9,-1
 892 123 l 1,10,-1
 928 305 l 1,11,-1
 1038 305 l 1,12,-1
 978 0 l 1,13,-1
 59 0 l 1,0,-1
EndSplineSet
Validated: 3073
EndChar

StartChar: m
Encoding: 333 109 77
Width: 1823
VWidth: 0
Flags: W
HStem: 0 106<73 209 319 443 1089 1225 1407 1527> 1096 107<265 401 1600 1742>
DStem2: 188.396 0 298.396 0 0.190809 0.981627<128.973 1008.17> 619 1203 487 969 0.292041 -0.956406<185.25 859.468> 870 381 851 193 0.568481 0.822696<0 771.129> 1204.4 0 1386.4 0 0.190809 0.981627<142.711 976.795>
LayerCount: 2
Fore
SplineSet
59 0 m 1,0,-1
 73 106 l 1,1,-1
 209 106 l 1,2,-1
 401 1096 l 1,3,-1
 249 1096 l 1,4,-1
 265 1203 l 1,5,-1
 619 1203 l 1,6,-1
 870 381 l 1,7,-1
 1438 1203 l 1,8,-1
 1757 1203 l 1,9,-1
 1742 1096 l 1,10,-1
 1600 1096 l 1,11,-1
 1407 106 l 1,12,-1
 1543 106 l 1,13,-1
 1527 0 l 1,14,-1
 1075 0 l 1,15,-1
 1089 106 l 1,16,-1
 1225 106 l 1,17,-1
 1390 959 l 1,18,-1
 851 193 l 1,19,-1
 724 193 l 1,20,-1
 487 969 l 1,21,-1
 319 106 l 1,22,-1
 459 106 l 1,23,-1
 443 0 l 1,24,-1
 59 0 l 1,0,-1
EndSplineSet
Validated: 3073
EndChar

StartChar: n
Encoding: 334 110 78
Width: 1584
VWidth: 0
Flags: W
HStem: -23 21G<1032.59 1145.9> 0 106<73 216 327 456> 1096 107<273 409 1114 1250 1360 1503>
DStem2: 190.925 -23 301.925 -23 0.190809 0.981627<152.594 1010.23> 583 1203 490 948 0.495561 -0.868573<175.399 1035.94> 1032.63 -23 1142 -23 0.190809 0.981627<332.102 1139.92>
LayerCount: 2
Fore
SplineSet
59 0 m 1,0,-1
 73 106 l 1,1,-1
 216 106 l 1,2,-1
 409 1096 l 1,3,-1
 256 1096 l 1,4,-1
 273 1203 l 1,5,-1
 583 1203 l 1,6,-1
 1096 303 l 1,7,-1
 1250 1096 l 1,8,-1
 1098 1096 l 1,9,-1
 1114 1203 l 1,10,-1
 1518 1203 l 1,11,-1
 1503 1096 l 1,12,-1
 1360 1096 l 1,13,-1
 1142 -23 l 1,14,-1
 1044 -23 l 1,15,-1
 490 948 l 1,16,-1
 327 106 l 1,17,-1
 472 106 l 1,18,-1
 456 0 l 1,19,-1
 59 0 l 1,0,-1
EndSplineSet
Validated: 3073
EndChar

StartChar: o
Encoding: 335 111 79
Width: 1218
VWidth: 0
Flags: W
HStem: -24 108<343.928 644.679> 1118 106<515.407 862.886>
VStem: 71 155<228.961 683.985> 983 167<534.635 995.291>
LayerCount: 2
Fore
SplineSet
266 214 m 0,0,1
 336 84 336 84 512 84 c 0,2,3
 865 84 865 84 958 601 c 1,4,5
 983 715 983 715 983 815 c 0,6,7
 983 916 983 916 943 988 c 0,8,9
 871 1118 871 1118 697 1118 c 0,10,11
 344 1118 344 1118 252 601 c 1,12,13
 226 487 226 487 226 387 c 128,-1,14
 226 287 226 287 266 214 c 0,0,1
167 136 m 0,15,16
 71 273 71 273 71 448 c 0,17,18
 71 519 71 519 92.5 632.5 c 128,-1,19
 114 746 114 746 172 861 c 1,20,21
 231 975 231 975 320 1060 c 0,22,23
 492 1224 492 1224 718 1224 c 128,-1,24
 944 1224 944 1224 1071 1054 c 0,25,26
 1150 948 1150 948 1150 798 c 0,27,28
 1150 708 1150 708 1121 601 c 1,29,30
 1071 313 1071 313 894 145 c 1,31,32
 619 -11 619 -11 511 -24 c 1,33,34
 504 -24 l 1,35,-1
 498 -24 l 2,36,37
 279 -24 279 -24 167 136 c 0,15,16
EndSplineSet
Validated: 3073
EndChar

StartChar: p
Encoding: 336 112 80
Width: 1173
VWidth: 0
Flags: W
HStem: 0 106<73 209 391 528> 516 108<491 831.794> 1096 107<278 401 583 903.457>
VStem: 949 163<755.627 1051.38>
DStem2: 188.396 0 370.396 0 0.190809 0.981627<142.711 560.252 670.275 1116.43>
LayerCount: 2
Fore
SplineSet
491 624 m 1,0,-1
 679 624 l 2,1,2
 785 624 785 624 851.5 684.5 c 128,-1,3
 918 745 918 745 939 860 c 1,4,5
 949 902 949 902 949 950 c 128,-1,6
 949 998 949 998 919 1036 c 0,7,8
 872 1096 872 1096 768 1096 c 2,9,-1
 583 1096 l 1,10,-1
 491 624 l 1,0,-1
59 0 m 1,11,-1
 73 106 l 1,12,-1
 209 106 l 1,13,-1
 401 1096 l 1,14,-1
 263 1096 l 1,15,-1
 278 1203 l 1,16,-1
 799 1203 l 2,17,18
 964 1203 964 1203 1053 1110 c 0,19,20
 1112 1049 1112 1049 1112 959 c 0,21,22
 1112 913 1112 913 1097 860 c 1,23,24
 1071 703 1071 703 962 609.5 c 128,-1,25
 853 516 853 516 693 516 c 2,26,-1
 470 516 l 1,27,-1
 391 106 l 1,28,-1
 543 106 l 1,29,-1
 528 0 l 1,30,-1
 59 0 l 1,11,-1
EndSplineSet
Validated: 3073
EndChar

StartChar: q
Encoding: 337 113 81
Width: 1283
VWidth: 0
Flags: W
HStem: -264 185<714.284 1015> -27 107<387.099 571.886> 1118 107<556.44 900.137>
VStem: 73 199<220.684 714.203> 1015 200<485.383 982.103>
LayerCount: 2
Fore
SplineSet
654 -10 m 1,0,1
 713 -79 713 -79 865 -79 c 2,2,-1
 1046 -79 l 1,3,-1
 1015 -264 l 1,4,-1
 931 -264 l 2,5,6
 742 -264 742 -264 664 -182 c 1,7,8
 587 -123 587 -123 554 -27 c 1,9,10
 287 -27 287 -27 161 144 c 0,11,12
 73 263 73 263 73 439 c 0,13,14
 73 513 73 513 94 629 c 128,-1,15
 115 745 115 745 178.5 860 c 128,-1,16
 242 975 242 975 338 1060 c 0,17,18
 524 1225 524 1225 766.5 1225 c 128,-1,19
 1009 1225 1009 1225 1130 1053 c 0,20,21
 1215 933 1215 933 1215 759 c 0,22,23
 1215 685 1215 685 1200 600 c 0,24,25
 1155 361 1155 361 1010 199 c 128,-1,26
 865 37 865 37 654 -10 c 1,0,1
272 409 m 0,27,28
 272 80 272 80 551 80 c 0,29,30
 726 80 726 80 838.5 211 c 128,-1,31
 951 342 951 342 996 599 c 0,32,33
 1015 705 1015 705 1015 789 c 0,34,35
 1015 1118 1015 1118 736 1118 c 0,36,37
 561 1118 561 1118 448.5 987 c 128,-1,38
 336 856 336 856 291 599 c 0,39,40
 272 494 272 494 272 409 c 0,27,28
EndSplineSet
Validated: 3073
EndChar

StartChar: r
Encoding: 338 114 82
Width: 1346
VWidth: 0
Flags: W
HStem: 0 106<73 209 391 525 1094 1209> 548 108<497 741.413> 1096 107<278 401 583 932.247>
VStem: 969 213<780.865 1057.75>
DStem2: 188.396 0 370.396 0 0.190809 0.981627<142.711 592.809 702.832 1116.43> 991 439 806 383 0.296713 -0.954967<-146.985 348.565>
LayerCount: 2
Fore
SplineSet
845 594 m 1,0,1
 953 565 953 565 991 439 c 2,2,-1
 1094 106 l 1,3,-1
 1224 106 l 1,4,-1
 1209 0 l 1,5,-1
 925 0 l 1,6,-1
 806 383 l 1,7,8
 777 487 777 487 742.5 517.5 c 128,-1,9
 708 548 708 548 637 548 c 2,10,-1
 476 548 l 1,11,-1
 391 106 l 1,12,-1
 540 106 l 1,13,-1
 525 0 l 1,14,-1
 59 0 l 1,15,-1
 73 106 l 1,16,-1
 209 106 l 1,17,-1
 401 1096 l 1,18,-1
 262 1096 l 1,19,-1
 278 1203 l 1,20,-1
 872 1203 l 2,21,22
 1043 1203 1043 1203 1126 1118 c 0,23,24
 1182 1061 1182 1061 1182 973 c 0,25,26
 1182 930 1182 930 1169 880 c 1,27,28
 1121 630 1121 630 845 594 c 1,0,1
969 948 m 0,29,30
 969 1096 969 1096 790 1096 c 2,31,-1
 583 1096 l 1,32,-1
 497 656 l 1,33,-1
 707 656 l 2,34,35
 815 656 815 656 876 710 c 1,36,37
 934 763 934 763 960 876 c 0,38,39
 969 916 969 916 969 948 c 0,29,30
EndSplineSet
Validated: 3073
EndChar

StartChar: s
Encoding: 339 115 83
Width: 1062
VWidth: 0
Flags: W
HStem: -23 107<265.125 628.739> 1118 107<449.38 794.866>
VStem: 108 103<269.064 342> 201 152<747.25 994.274> 743 157<232.214 477.5> 850 101<886 969.682>
DStem2: 551 725 433 534 0.943521 -0.331313<-182.265 256.25>
LayerCount: 2
Fore
SplineSet
201 268 m 0,0,1
 201 84 201 84 437 84 c 0,2,3
 564 84 564 84 640.5 135.5 c 128,-1,4
 717 187 717 187 736 285 c 1,5,6
 743 313 743 313 743 346 c 128,-1,7
 743 379 743 379 714.5 413.5 c 128,-1,8
 686 448 686 448 564 488 c 1,9,-1
 433 534 l 1,10,11
 289 588 289 588 234 669 c 0,12,13
 201 718 201 718 201 776.5 c 128,-1,14
 201 835 201 835 215 891 c 1,15,16
 242 1050 242 1050 355.5 1137.5 c 128,-1,17
 469 1225 469 1225 647 1225 c 0,18,19
 798 1225 798 1225 994 1137 c 1,20,-1
 951 886 l 1,21,-1
 850 886 l 1,22,23
 850 928 l 2,24,25
 850 1010 850 1010 802 1068 c 1,26,27
 762 1118 762 1118 632 1118 c 0,28,29
 394 1118 394 1118 359 935 c 1,30,31
 353 909 353 909 353 875.5 c 128,-1,32
 353 842 353 842 384.5 805 c 128,-1,33
 416 768 416 768 551 725 c 1,34,-1
 675 682 l 1,35,36
 811 630 811 630 866 552 c 0,37,38
 900 505 900 505 900 450 c 0,39,40
 900 393 900 393 886 341 c 1,41,42
 824 -23 824 -23 419 -23 c 0,43,44
 237 -23 237 -23 61 78 c 1,45,-1
 108 342 l 1,46,-1
 211 342 l 1,47,48
 201 302 201 302 201 268 c 0,0,1
EndSplineSet
Validated: 3073
EndChar

StartChar: t
Encoding: 340 116 84
Width: 1284
VWidth: 0
Flags: W
HStem: 0 106<263 399 580 692> 1084 119<256 589 771 1083>
VStem: 118 110<943 1053> 1049 110<909 1019>
DStem2: 378.396 0 559.396 0 0.190809 0.981627<142.52 1104.27> 872.308 0 982.308 0 0.190809 0.981627<947.003 1104.29>
LayerCount: 2
Fore
SplineSet
249 0 m 1,0,-1
 263 106 l 1,1,-1
 399 106 l 1,2,-1
 589 1084 l 1,3,-1
 256 1084 l 1,4,-1
 228 943 l 1,5,-1
 118 943 l 1,6,-1
 168 1203 l 1,7,-1
 1216 1203 l 1,8,-1
 1159 909 l 1,9,-1
 1049 909 l 1,10,-1
 1083 1084 l 1,11,-1
 771 1084 l 1,12,-1
 580 106 l 1,13,-1
 707 106 l 1,14,-1
 692 0 l 1,15,-1
 249 0 l 1,0,-1
EndSplineSet
Validated: 3073
EndChar

StartChar: u
Encoding: 341 117 85
Width: 1406
VWidth: 0
Flags: W
HStem: -23 131<395.542 780.705> 1096 107<159 280 461 597 951 1080 1190 1325>
VStem: 135 187<177.8 579.203>
DStem2: 61.866 -23 242.95 -23 0.190809 0.981627<389.746 1140.06> 861.95 -23 972.866 -23 0.190809 0.981627<249.259 1140.05>
LayerCount: 2
Fore
SplineSet
280 1096 m 1,0,-1
 143 1096 l 1,1,-1
 159 1203 l 1,2,-1
 612 1203 l 1,3,-1
 597 1096 l 1,4,-1
 461 1096 l 1,5,-1
 345 502 l 1,6,7
 322 400 322 400 322 321 c 128,-1,8
 322 242 322 242 353 195 c 0,9,10
 411 108 411 108 581.5 108 c 128,-1,11
 752 108 752 108 837.5 195 c 128,-1,12
 923 282 923 282 964 502 c 1,13,-1
 1080 1096 l 1,14,-1
 935 1096 l 1,15,-1
 951 1203 l 1,16,-1
 1340 1203 l 1,17,-1
 1325 1096 l 1,18,-1
 1190 1096 l 1,19,-1
 1072 487 l 1,20,21
 1020 208 1020 208 895 92.5 c 128,-1,22
 770 -23 770 -23 523 -23 c 128,-1,23
 276 -23 276 -23 187 93 c 0,24,25
 135 161 135 161 135 266.5 c 128,-1,26
 135 372 135 372 161 487 c 1,27,-1
 280 1096 l 1,0,-1
EndSplineSet
Validated: 3073
EndChar

StartChar: v
Encoding: 342 118 86
Width: 1397
VWidth: 0
Flags: W
HStem: 0 21G<438.314 603.314> 1096 107<149 240 445 563 992 1099 1212 1315>
DStem2: 445 1096 240 1096 0.181254 -0.983436<0 886.738> 606 224 592 0 0.492371 0.870385<0 1001.71>
LayerCount: 2
Fore
SplineSet
445 1096 m 1,0,-1
 606 224 l 1,1,-1
 1099 1096 l 1,2,-1
 976 1096 l 1,3,-1
 992 1203 l 1,4,-1
 1330 1203 l 1,5,-1
 1315 1096 l 1,6,-1
 1212 1096 l 1,7,-1
 592 0 l 1,8,-1
 442 0 l 1,9,-1
 240 1096 l 1,10,-1
 134 1096 l 1,11,-1
 149 1203 l 1,12,-1
 578 1203 l 1,13,-1
 563 1096 l 1,14,-1
 445 1096 l 1,0,-1
EndSplineSet
Validated: 3073
EndChar

StartChar: w
Encoding: 343 119 87
Width: 1858
VWidth: 0
Flags: W
HStem: 0 21G<238 488.548 923 1159.2> 1096 107<148 238 427 559 1399 1514 1708 1812>
VStem: 238 189<260 1096> 923 160<248 930>
DStem2: 1083 248 1149 0 0.454352 0.890822<0 951.243>
LayerCount: 2
Fore
SplineSet
1149 0 m 1,0,-1
 923 0 l 1,1,-1
 923 930 l 1,2,-1
 479 0 l 1,3,-1
 238 0 l 1,4,-1
 238 1096 l 1,5,-1
 133 1096 l 1,6,-1
 148 1203 l 1,7,-1
 574 1203 l 1,8,-1
 559 1096 l 1,9,-1
 427 1096 l 1,10,-1
 427 260 l 1,11,-1
 951 1203 l 1,12,-1
 1083 1203 l 1,13,-1
 1083 248 l 1,14,-1
 1514 1096 l 1,15,-1
 1382 1096 l 1,16,-1
 1399 1203 l 1,17,-1
 1827 1203 l 1,18,-1
 1812 1096 l 1,19,-1
 1708 1096 l 1,20,-1
 1149 0 l 1,0,-1
EndSplineSet
Validated: 3073
EndChar

StartChar: x
Encoding: 344 120 88
Width: 1404
VWidth: 0
Flags: W
HStem: 0 106<45 168 317 421 660 787 1019 1118> 1096 107<269 368 601 726 942 1054 1204 1323>
DStem2: 168 106 317 106 0.6673 0.744789<99.4278 577.721 856.204 1328.57> 601 1096 368 1096 0.389761 -0.920916<0 377.949 604.445 984.202>
LayerCount: 2
Fore
SplineSet
642 457 m 1,0,-1
 317 106 l 1,1,-1
 436 106 l 1,2,-1
 421 0 l 1,3,-1
 31 0 l 1,4,-1
 45 106 l 1,5,-1
 168 106 l 1,6,-1
 586 574 l 1,7,-1
 368 1096 l 1,8,-1
 254 1096 l 1,9,-1
 269 1203 l 1,10,-1
 741 1203 l 1,11,-1
 726 1096 l 1,12,-1
 601 1096 l 1,13,-1
 739 744 l 1,14,-1
 1054 1096 l 1,15,-1
 925 1096 l 1,16,-1
 942 1203 l 1,17,-1
 1338 1203 l 1,18,-1
 1323 1096 l 1,19,-1
 1204 1096 l 1,20,-1
 794 628 l 1,21,-1
 1019 106 l 1,22,-1
 1133 106 l 1,23,-1
 1118 0 l 1,24,-1
 646 0 l 1,25,-1
 660 106 l 1,26,-1
 787 106 l 1,27,-1
 642 457 l 1,0,-1
EndSplineSet
Validated: 3073
EndChar

StartChar: y
Encoding: 345 121 89
Width: 1299
VWidth: 0
Flags: W
HStem: 0 106<261 397 579 695> 1096 107<149 234 453 576 894 1000 1115 1216>
DStem2: 453 1096 234 1096 0.394308 -0.918978<0 476.642> 376.396 0 558.396 0 0.190809 0.981627<142.711 534.932> 641 658 664 545 0.633391 0.773832<0 566.326>
LayerCount: 2
Fore
SplineSet
247 0 m 1,0,-1
 261 106 l 1,1,-1
 397 106 l 1,2,-1
 479 525 l 1,3,-1
 234 1096 l 1,4,-1
 134 1096 l 1,5,-1
 149 1203 l 1,6,-1
 591 1203 l 1,7,-1
 576 1096 l 1,8,-1
 453 1096 l 1,9,-1
 641 658 l 1,10,-1
 1000 1096 l 1,11,-1
 877 1096 l 1,12,-1
 894 1203 l 1,13,-1
 1231 1203 l 1,14,-1
 1216 1096 l 1,15,-1
 1115 1096 l 1,16,-1
 664 545 l 1,17,-1
 579 106 l 1,18,-1
 711 106 l 1,19,-1
 695 0 l 1,20,-1
 247 0 l 1,0,-1
EndSplineSet
Validated: 3073
EndChar

StartChar: z
Encoding: 346 122 90
Width: 1361
VWidth: 0
Flags: W
HStem: 0 123<352 979> 1080 123<413 1003>
VStem: 263 110<875 985> 1009 109<166 275>
DStem2: 70 72 352 123 0.679277 0.733882<228.984 1373.52> 92.9172 0 202.917 0 0.190809 0.981627<912.366 1121.23> 955.091 0 1065 0 0.190809 0.981627<125.302 280.234>
LayerCount: 2
Fore
SplineSet
60 0 m 1,0,-1
 70 72 l 1,1,-1
 1003 1080 l 1,2,-1
 413 1080 l 1,3,-1
 373 875 l 1,4,-1
 263 875 l 1,5,-1
 327 1203 l 1,6,-1
 1295 1203 l 1,7,-1
 1285 1131 l 1,8,-1
 352 123 l 1,9,-1
 979 123 l 1,10,-1
 1009 275 l 1,11,-1
 1118 275 l 1,12,-1
 1065 0 l 1,13,-1
 60 0 l 1,0,-1
EndSplineSet
Validated: 3073
EndChar

StartChar: braceleft
Encoding: 347 123 91
Width: 910
VWidth: 0
Flags: W
HStem: -280 106<392.83 545> 439 106<110 261.039> 1159 105<636.172 820>
VStem: 212 166<-150.064 175.102> 280 165<62.8203 417.459>
DStem2: 168.548 -280 333.796 -280 0.190809 0.981627<232.522 615.316 896.066 1466.4>
LayerCount: 2
Fore
SplineSet
561 -174 m 1,0,-1
 545 -280 l 1,1,-1
 497 -280 l 2,2,3
 305 -280 305 -280 246 -218 c 0,4,5
 212 -182 212 -182 212 -114.5 c 128,-1,6
 212 -47 212 -47 229 31 c 1,7,-1
 268 232 l 1,8,9
 280 284 280 284 280 326.5 c 128,-1,10
 280 369 280 369 262 394 c 0,11,12
 230 439 230 439 136 439 c 2,13,-1
 96 439 l 1,14,-1
 110 545 l 1,15,-1
 154 545 l 2,16,17
 255 545 255 545 301.5 590 c 128,-1,18
 348 635 348 635 369 752 c 1,19,-1
 408 953 l 1,20,21
 441 1141 441 1141 517.5 1202.5 c 128,-1,22
 594 1264 594 1264 787 1264 c 2,23,-1
 835 1264 l 1,24,-1
 820 1159 l 1,25,-1
 772 1159 l 2,26,27
 672 1159 672 1159 635 1124.5 c 128,-1,28
 598 1090 598 1090 579 981 c 1,29,-1
 535 757 l 1,30,31
 509 630 509 630 455.5 575 c 128,-1,32
 402 520 402 520 286 496 c 1,33,34
 396 468 396 468 428 412 c 0,35,36
 445 382 445 382 445 335 c 128,-1,37
 445 288 445 288 432 227 c 1,38,-1
 389 4 l 2,39,40
 378 -48 378 -48 378 -85 c 128,-1,41
 378 -122 378 -122 392 -140 c 0,42,43
 418 -174 418 -174 515 -174 c 2,44,-1
 561 -174 l 1,0,-1
EndSplineSet
Validated: 3073
EndChar

StartChar: asciitilde
Encoding: 348 126 92
Width: 1180
VWidth: 0
Flags: W
HStem: 338 150<132 282> 348 170<649.641 910.528> 488 171<268.326 524.838> 521 148<897 1045>
DStem2: 590 597 587 410 0.876812 -0.480833<-126.361 212.32>
LayerCount: 2
Fore
SplineSet
791 518 m 0,0,1
 921 518 921 518 1045 669 c 1,2,-1
 1045 521 l 1,3,4
 907 348 907 348 779 348 c 0,5,6
 711 348 711 348 587 410 c 1,7,-1
 556 427 l 1,8,9
 451 488 451 488 384 488 c 0,10,11
 255 488 255 488 132 338 c 1,12,-1
 132 488 l 1,13,14
 268 657 268 657 398 659 c 0,15,16
 399 659 399 659 400 659 c 0,17,18
 466 659 466 659 590 597 c 1,19,20
 613 584 613 584 619 580 c 0,21,22
 722 518 722 518 791 518 c 0,0,1
EndSplineSet
Validated: 3073
EndChar

StartChar: bar
Encoding: 349 124 93
Width: 495
VWidth: 0
Flags: W
VStem: 175 145<-389 1261>
LayerCount: 2
Fore
SplineSet
320 1261 m 1,0,-1
 320 -389 l 1,1,-1
 175 -389 l 1,2,-1
 175 1261 l 1,3,-1
 320 1261 l 1,0,-1
EndSplineSet
Validated: 3073
EndChar

StartChar: braceright
Encoding: 350 125 94
Width: 906
VWidth: 0
Flags: W
HStem: -280 106<86 270.859> 439 106<644.006 796> 1159 105<340 513.105>
VStem: 460 166<568.575 918.227> 529 165<810.586 1134.59>
DStem2: 272.449 -280 436.477 -280 0.190809 0.981627<138.617 706.036 988.537 1373.49>
LayerCount: 2
Fore
SplineSet
86 -174 m 1,0,-1
 136 -174 l 2,1,2
 236 -174 236 -174 272 -140 c 128,-1,3
 308 -106 308 -106 327 4 c 1,4,-1
 371 227 l 1,5,6
 395 354 395 354 443.5 408 c 128,-1,7
 492 462 492 462 598 489 c 1,8,9
 505 514 505 514 475 570 c 0,10,11
 460 598 460 598 460 645.5 c 128,-1,12
 460 693 460 693 474 757 c 1,13,-1
 517 981 l 1,14,15
 529 1033 529 1033 529 1070.5 c 128,-1,16
 529 1108 529 1108 514 1126 c 0,17,18
 486 1159 486 1159 378 1159 c 2,19,-1
 324 1159 l 1,20,-1
 340 1264 l 1,21,-1
 392 1264 l 2,22,23
 599 1264 599 1264 658 1203 c 0,24,25
 694 1167 694 1167 694 1099 c 0,26,27
 694 1029 694 1029 677 953 c 1,28,-1
 638 752 l 1,29,30
 626 699 626 699 626 657 c 128,-1,31
 626 615 626 615 644 590 c 0,32,33
 676 545 676 545 769 545 c 2,34,-1
 810 545 l 1,35,-1
 796 439 l 1,36,-1
 751 439 l 2,37,38
 650 439 650 439 603.5 394 c 128,-1,39
 557 349 557 349 536 232 c 1,40,-1
 497 31 l 1,41,42
 464 -155 464 -155 388 -217.5 c 128,-1,43
 312 -280 312 -280 120 -280 c 2,44,-1
 71 -280 l 1,45,-1
 86 -174 l 1,0,-1
EndSplineSet
Validated: 3073
EndChar

StartChar: sfthyphen
Encoding: 352 173 96
Width: 666
VWidth: 0
Flags: W
HStem: 363 157<161 505>
VStem: 140 386
LayerCount: 2
Fore
SplineSet
161 520 m 1,0,-1
 526 520 l 1,1,-1
 505 363 l 1,2,-1
 140 363 l 1,3,-1
 161 520 l 1,0,-1
EndSplineSet
Validated: 3073
EndChar

StartChar: uni2010
Encoding: 356 8208 100
Width: 666
VWidth: 0
Flags: W
HStem: 363 157<161 505>
VStem: 140 386
LayerCount: 2
Fore
SplineSet
161 520 m 1,0,-1
 526 520 l 1,1,-1
 505 363 l 1,2,-1
 140 363 l 1,3,-1
 161 520 l 1,0,-1
EndSplineSet
Validated: 3073
EndChar

StartChar: endash
Encoding: 358 8211 102
Width: 900
VWidth: 0
Flags: W
HStem: 370 134<158 741>
VStem: 140 619
LayerCount: 2
Fore
SplineSet
158 504 m 1,0,-1
 759 504 l 1,1,-1
 741 370 l 1,2,-1
 140 370 l 1,3,-1
 158 504 l 1,0,-1
EndSplineSet
Validated: 3073
EndChar

StartChar: quoteleft
Encoding: 359 8216 103
Width: 555
VWidth: 0
Flags: W
HStem: 719 506
VStem: 124 184<719 896.646>
LayerCount: 2
Fore
SplineSet
460 1145 m 1,0,1
 397 1081 397 1081 361 996 c 128,-1,2
 325 911 325 911 308 782 c 1,3,-1
 297 719 l 1,4,-1
 124 719 l 1,5,6
 152 893 152 893 221.5 1013.5 c 128,-1,7
 291 1134 291 1134 415 1225 c 1,8,-1
 460 1145 l 1,0,1
EndSplineSet
Validated: 3073
EndChar

StartChar: quoteright
Encoding: 360 8217 104
Width: 557
VWidth: 0
Flags: W
HStem: 697 506
VStem: 274 184<1026.39 1203>
LayerCount: 2
Fore
SplineSet
118 777 m 1,0,1
 183 840 183 840 219.5 926 c 128,-1,2
 256 1012 256 1012 274 1142 c 1,3,-1
 285 1203 l 1,4,-1
 458 1203 l 1,5,6
 430 1030 430 1030 359.5 909 c 128,-1,7
 289 788 289 788 163 697 c 1,8,-1
 118 777 l 1,0,1
EndSplineSet
Validated: 3073
EndChar

StartChar: quotedblleft
Encoding: 361 8220 105
Width: 871
VWidth: 0
Flags: W
HStem: 719 506
VStem: 124 184<719 896.646> 440 174<719 893.957>
LayerCount: 2
Fore
SplineSet
776 1145 m 1,0,1
 657 1022 657 1022 625 782 c 1,2,-1
 614 719 l 1,3,-1
 440 719 l 1,4,5
 469 894 469 894 538 1014 c 128,-1,6
 607 1134 607 1134 731 1225 c 1,7,-1
 776 1145 l 1,0,1
465 1145 m 1,8,9
 400 1081 400 1081 363 996 c 128,-1,10
 326 911 326 911 308 782 c 1,11,-1
 297 719 l 1,12,-1
 124 719 l 1,13,14
 152 893 152 893 221.5 1013.5 c 128,-1,15
 291 1134 291 1134 415 1225 c 1,16,-1
 465 1145 l 1,8,9
EndSplineSet
Validated: 3073
EndChar

StartChar: quotedblright
Encoding: 362 8221 106
Width: 876
VWidth: 0
Flags: W
HStem: 697 506
VStem: 274 184<1026.39 1203> 593 184<1028.04 1203>
LayerCount: 2
Fore
SplineSet
118 777 m 1,0,1
 183 840 183 840 219.5 926 c 128,-1,2
 256 1012 256 1012 274 1142 c 1,3,-1
 285 1203 l 1,4,-1
 458 1203 l 1,5,6
 430 1030 430 1030 359.5 909 c 128,-1,7
 289 788 289 788 163 697 c 1,8,-1
 118 777 l 1,0,1
434 777 m 1,9,10
 500 840 500 840 537.5 925.5 c 128,-1,11
 575 1011 575 1011 593 1140 c 1,12,-1
 604 1203 l 1,13,-1
 777 1203 l 1,14,15
 748 1028 748 1028 678.5 908 c 128,-1,16
 609 788 609 788 484 697 c 1,17,-1
 434 777 l 1,9,10
EndSplineSet
Validated: 3073
EndChar

StartChar: bullet
Encoding: 363 8226 107
Width: 793
VWidth: 0
Flags: W
HStem: 316 593<259.051 539.993>
VStem: 134 531<448.125 778.312>
LayerCount: 2
Fore
SplineSet
210.5 402.5 m 128,-1,1
 134 489 134 489 134 613.5 c 128,-1,2
 134 738 134 738 211.5 823.5 c 128,-1,3
 289 909 289 909 400.5 909 c 128,-1,4
 512 909 512 909 588.5 823.5 c 128,-1,5
 665 738 665 738 665 613.5 c 128,-1,6
 665 489 665 489 588 402.5 c 128,-1,7
 511 316 511 316 399 316 c 256,8,0
 287 316 287 316 210.5 402.5 c 128,-1,1
EndSplineSet
Validated: 3073
EndChar

StartChar: uni2023
Encoding: 364 8227 108
Width: 844
VWidth: 0
Flags: W
HStem: 310 606
VStem: 155 602<310 916>
LayerCount: 2
Fore
SplineSet
155 310 m 1,0,-1
 155 916 l 1,1,-1
 757 613 l 1,2,-1
 155 310 l 1,0,-1
EndSplineSet
Validated: 3073
EndChar
